<svg width="38" height="38" viewBox="0 0 38 38" fill="none" xmlns="http://www.w3.org/2000/svg">
<g clip-path="url(#clip0_1237_3272)">
<path d="M19 0C8.50662 0 0 8.50662 0 19C0 29.4934 8.50662 38 19 38C29.4934 38 38 29.4934 38 19C38 8.50662 29.4934 0 19 0ZM19 4.12842C27.2134 4.12842 33.8693 10.7887 33.8693 19C33.8693 27.2113 27.2134 33.8693 19 33.8693C10.7866 33.8693 4.13073 27.2113 4.13073 19C4.13076 10.7887 10.7866 4.12842 19 4.12842ZM26.2804 9.97779L15.2682 20.9923L11.6964 17.4205L8.19188 20.9227L11.7637 24.4945L15.2914 28.0222L18.7936 24.5177L29.8081 13.5055L26.2804 9.97779Z" fill="#FFC100"/>
</g>
<defs>
<clipPath id="clip0_1237_3272">
<rect width="38" height="38" fill="white"/>
</clipPath>
</defs>
</svg>
