<svg width="31" height="19" viewBox="0 0 31 19" fill="none" xmlns="http://www.w3.org/2000/svg">
<path fill-rule="evenodd" clip-rule="evenodd" d="M15.2212 2.27313C13.1753 2.27313 12.9708 2.46168 11.912 2.46168C11.0301 2.46168 8.38153 0.584419 7.05864 0.584419C5.73445 0.584419 4.19029 1.26069 4.19029 3.2124V5.46453C4.19311 6.05538 4.43921 7.86665 5.40679 7.3826C4.26359 8.55728 4.14894 9.92767 4.16404 11.2537C3.85585 11.3306 3.54205 11.4183 3.23656 11.5083C2.2911 11.7893 1.28755 12.1473 0.835515 12.4019C0.604579 12.5316 0.442306 12.7356 0.384501 12.9693C0.326696 13.2029 0.378053 13.4468 0.527203 13.6475C0.67641 13.8482 0.911362 13.9891 1.18014 14.0393C1.44897 14.0897 1.72968 14.045 1.96062 13.9154C2.17634 13.7941 2.95733 13.495 3.90698 13.2128L4.22219 13.1226C4.28576 13.6427 4.4447 14.1195 4.68101 14.5519L4.64786 14.5676C4.08118 14.827 3.5559 15.1261 3.22129 15.3158L3.06519 15.4046C2.83425 15.5343 2.67198 15.7384 2.61417 15.972C2.55637 16.2056 2.60773 16.4495 2.75688 16.6502C2.90608 16.851 3.14103 16.9918 3.40981 17.0421C3.67864 17.0924 3.95935 17.0477 4.19029 16.9181L4.37145 16.8148C4.71008 16.6226 5.14418 16.3764 5.61686 16.1601C5.72755 16.1085 5.83394 16.0629 5.9362 16.0208C8.32763 17.9702 12.6225 18.6008 15.2212 18.6008C17.8199 18.6008 22.1148 17.9702 24.5061 16.0208C24.6085 16.0629 24.7135 16.1085 24.8254 16.1601C25.2982 16.3764 25.7323 16.6226 26.071 16.8148L26.252 16.9181C26.483 17.0477 26.764 17.0924 27.0326 17.0421C27.3013 16.9918 27.536 16.851 27.6854 16.6502C27.8347 16.4495 27.8861 16.2056 27.8284 15.972C27.7702 15.7384 27.6084 15.5343 27.3771 15.4046L27.221 15.3158C26.7589 15.0473 26.283 14.7977 25.7944 14.5676L25.7613 14.5519C25.9977 14.1195 26.1567 13.6427 26.2202 13.1226L26.5354 13.2128C27.4851 13.495 28.2662 13.7941 28.4829 13.9154C28.7136 14.0377 28.9908 14.0769 29.2543 14.0245C29.5179 13.972 29.7475 13.8321 29.894 13.6347C30.0405 13.4372 30.0926 13.1979 30.0394 12.9676C29.9857 12.7373 29.8301 12.5343 29.6067 12.4019C29.1548 12.1473 28.1514 11.7893 27.2074 11.5083C26.8997 11.4173 26.5898 11.332 26.2782 11.2525C26.2949 9.92654 26.1787 8.55728 25.0343 7.3826C26.0018 7.86665 26.2507 6.05538 26.252 5.4633V3.2124C26.252 1.26069 24.7079 0.584419 23.3838 0.584419C22.0609 0.584419 19.4124 2.46168 18.5318 2.46168C17.4717 2.46168 17.2671 2.27313 15.2212 2.27313ZM14.2881 13.316C14.5673 13.2331 14.8978 13.1959 15.2212 13.1959C15.5446 13.1959 15.875 13.2331 16.1556 13.316C16.2938 13.3569 16.4597 13.4217 16.6091 13.5249C16.7114 13.592 16.7951 13.6783 16.854 13.7772C16.9128 13.8761 16.9452 13.9854 16.949 14.0967C16.949 14.3729 16.7569 14.5651 16.6091 14.6684C16.4611 14.7717 16.2924 14.8366 16.1556 14.8774C15.8535 14.9604 15.5381 15.001 15.2212 14.9975C14.9048 15.0011 14.5897 14.9605 14.2881 14.8774C14.1237 14.8312 13.9698 14.7605 13.8333 14.6684C13.731 14.6014 13.6473 14.5151 13.5884 14.4162C13.5296 14.3172 13.497 14.208 13.4932 14.0967C13.4932 13.8204 13.6854 13.6283 13.8333 13.5249C13.9813 13.4217 14.1513 13.3569 14.2881 13.316ZM18.2209 9.59264C18.4102 9.31877 18.782 8.99209 19.3405 8.99209C19.8989 8.99209 20.2722 9.31877 20.4601 9.59264C20.6565 9.87968 20.7505 10.2256 20.7505 10.5691C20.7505 10.9114 20.6565 11.2574 20.4601 11.5432C20.2722 11.8182 19.8989 12.1449 19.3405 12.1449C18.782 12.1449 18.4102 11.8182 18.2209 11.5444C18.0254 11.2473 17.9252 10.9101 17.9306 10.5679C17.9306 10.2256 18.0245 9.87968 18.2209 9.59377V9.59264ZM9.9822 9.59264C10.1716 9.31877 10.5434 8.99209 11.1019 8.99209C11.6604 8.99209 12.0335 9.31877 12.2216 9.59264C12.4178 9.87968 12.5119 10.2256 12.5119 10.5691C12.5119 10.9114 12.4178 11.2574 12.2216 11.5432C12.0335 11.8182 11.6604 12.1449 11.1019 12.1449C10.5434 12.1449 10.1716 11.8182 9.9822 11.5444C9.78689 11.2473 9.68667 10.9101 9.69193 10.5679C9.69193 10.2256 9.78593 9.87968 9.9822 9.59377V9.59264Z" fill="white"/>
</svg>
