<svg width="238" height="88" viewBox="0 0 238 88" fill="none" xmlns="http://www.w3.org/2000/svg">
<path d="M19.346 81.5887C17.072 81.5887 15.0161 81.218 13.1783 80.4758C11.3716 79.7335 9.93864 78.6653 8.87952 77.2702C7.8204 75.8752 7.2753 74.2278 7.24414 72.3278H14.2529C14.3464 73.6045 14.8136 74.6137 15.6546 75.3552C16.5269 76.0974 17.7105 76.4689 19.2058 76.4689C20.7322 76.4689 21.9314 76.127 22.8036 75.4446C23.6759 74.732 24.1119 73.8123 24.1119 72.6841C24.1119 71.764 23.8161 71.007 23.2242 70.4135C22.6322 69.8199 21.8846 69.3597 20.9813 69.0332C20.1091 68.677 18.8943 68.2911 17.3367 67.8757C15.2186 67.2821 13.4897 66.7032 12.1503 66.1393C10.842 65.5457 9.70503 64.67 8.73934 63.5124C7.80482 62.3251 7.33759 60.752 7.33759 58.793C7.33759 56.9528 7.8204 55.35 8.78609 53.9845C9.75171 52.6191 11.1068 51.5803 12.8511 50.8679C14.5956 50.1258 16.5892 49.7548 18.832 49.7548C22.1962 49.7548 24.9218 50.5415 27.0089 52.1146C29.127 53.658 30.2952 55.8247 30.5133 58.6149H23.3176C23.2553 57.5463 22.7724 56.6707 21.8691 55.988C20.9968 55.2757 19.8287 54.9195 18.3647 54.9195C17.0876 54.9195 16.0597 55.2311 15.2808 55.8545C14.5333 56.4778 14.1595 57.383 14.1595 58.5704C14.1595 59.4015 14.4398 60.0989 15.0005 60.663C15.5924 61.1973 16.3088 61.6425 17.1499 61.9986C18.0221 62.3251 19.237 62.711 20.7944 63.1562C22.9126 63.7498 24.6414 64.3436 25.9809 64.9371C27.3204 65.5308 28.4729 66.4212 29.4386 67.6085C30.4042 68.7958 30.887 70.3542 30.887 72.2831C30.887 73.9457 30.4353 75.4893 29.5321 76.9139C28.6287 78.3385 27.3047 79.4811 25.5604 80.3423C23.8161 81.1733 21.7444 81.5887 19.346 81.5887ZM60.6218 68.4099C60.6218 69.3004 60.5593 70.1018 60.4349 70.8141H41.5112C41.6669 72.5954 42.3211 73.9904 43.4736 74.9996C44.6261 76.0087 46.0435 76.5129 47.7256 76.5129C50.1554 76.5129 51.8842 75.5189 52.9121 73.5302H59.9676C59.22 75.9048 57.7871 77.8639 55.6689 79.4068C53.5506 80.9208 50.9497 81.6775 47.8658 81.6775C45.3737 81.6775 43.1309 81.1581 41.1374 80.1194C39.175 79.0512 37.633 77.5523 36.5117 75.6228C35.4213 73.6933 34.8762 71.4672 34.8762 68.9442C34.8762 66.3916 35.4213 64.1505 36.5117 62.2212C37.6018 60.2919 39.1282 58.8078 41.0907 57.7689C43.0532 56.7302 45.3115 56.2107 47.8658 56.2107C50.3266 56.2107 52.5227 56.7152 54.4541 57.7244C56.4165 58.7337 57.9272 60.1732 58.9864 62.0431C60.0766 63.8834 60.6218 66.0057 60.6218 68.4099ZM53.8466 66.629C53.8154 65.0262 53.208 63.7498 52.0244 62.8C50.8406 61.8205 49.3921 61.3308 47.6789 61.3308C46.0591 61.3308 44.6885 61.8058 43.5671 62.7555C42.4768 63.6757 41.8071 64.9669 41.5579 66.629H53.8466ZM63.7144 68.8551C63.7144 66.3619 64.2284 64.1505 65.2563 62.2212C66.3154 60.2919 67.7328 58.8078 69.5083 57.7689C71.3149 56.7302 73.3241 56.2107 75.5358 56.2107C77.4668 56.2107 79.1492 56.5817 80.5821 57.3237C82.0459 58.0658 83.214 59.0008 84.0863 60.1287V56.6114H90.6747V81.2771H84.0863V77.6706C83.2458 78.8283 82.0777 79.7927 80.5821 80.5645C79.1182 81.3067 77.4206 81.6775 75.4892 81.6775C73.3086 81.6775 71.3149 81.1437 69.5083 80.0747C67.7328 79.0064 66.3154 77.5076 65.2563 75.578C64.2284 73.619 63.7144 71.3782 63.7144 68.8551ZM84.0863 68.9442C84.0863 67.4304 83.7753 66.1393 83.152 65.0707C82.5286 63.9724 81.6881 63.1414 80.629 62.5774C79.5699 61.9839 78.4328 61.687 77.2179 61.687C76.0029 61.687 74.8818 61.9689 73.8538 62.5329C72.8258 63.0969 71.9848 63.9279 71.3306 65.0262C70.7075 66.0947 70.3961 67.3711 70.3961 68.8551C70.3961 70.3392 70.7075 71.6453 71.3306 72.7729C71.9848 73.8714 72.8258 74.7175 73.8538 75.3112C74.9128 75.9048 76.0339 76.2013 77.2179 76.2013C78.4328 76.2013 79.5699 75.9192 80.629 75.3552C81.6881 74.7622 82.5286 73.9306 83.152 72.8623C83.7753 71.764 84.0863 70.458 84.0863 68.9442ZM103.605 60.4403C104.446 59.1344 105.536 58.1103 106.876 57.3683C108.246 56.6262 109.804 56.2552 111.548 56.2552V62.8H109.82C107.764 62.8 106.206 63.2601 105.147 64.1802C104.119 65.1004 103.605 66.7032 103.605 68.9887V81.2771H97.0635V56.6114H103.605V60.4403ZM114.273 68.9442C114.273 66.3916 114.817 64.1655 115.908 62.2657C116.998 60.3365 118.509 58.8523 120.44 57.8135C122.371 56.745 124.583 56.2107 127.075 56.2107C130.284 56.2107 132.931 56.9823 135.019 58.5259C137.137 60.0396 138.554 62.1767 139.27 64.9371H132.215C131.841 63.8686 131.203 63.0375 130.299 62.4439C129.427 61.8205 128.336 61.5089 127.028 61.5089C125.16 61.5089 123.68 62.1619 122.59 63.4679C121.499 64.7442 120.954 66.5697 120.954 68.9442C120.954 71.2891 121.499 73.1148 122.59 74.4203C123.68 75.6971 125.16 76.3347 127.028 76.3347C129.676 76.3347 131.405 75.2073 132.215 72.951H139.27C138.554 75.6228 137.137 77.7449 135.019 79.318C132.9 80.8912 130.253 81.6775 127.075 81.6775C124.583 81.6775 122.371 81.1581 120.44 80.1194C118.509 79.0512 116.998 77.5667 115.908 75.6675C114.817 73.738 114.273 71.4968 114.273 68.9442ZM158.64 56.2552C160.603 56.2552 162.348 56.6707 163.874 57.5018C165.401 58.3032 166.583 59.5054 167.425 61.1082C168.297 62.6813 168.733 64.5809 168.733 66.8071V81.2771H162.192V67.6531C162.192 65.6941 161.677 64.195 160.65 63.1562C159.622 62.0876 158.22 61.5534 156.445 61.5534C154.638 61.5534 153.205 62.0876 152.146 63.1562C151.118 64.195 150.604 65.6941 150.604 67.6531V81.2771H144.063V48.3301H150.604V59.6834C151.446 58.6149 152.567 57.7837 153.968 57.1902C155.37 56.5669 156.928 56.2552 158.64 56.2552Z" fill="#6F6F6F"/>
<path d="M177.108 13.508C175.586 20.1426 176.254 25.8636 178.232 30.772C182.949 35.8377 189.351 39.3852 195.999 42.8149C193.748 40.7137 191.614 38.6353 189.759 36.5103H200.603C201.393 35.6261 202.13 34.7375 202.806 33.844H187.614C186.879 32.8403 186.217 31.8209 185.643 30.7764C185.342 30.2276 185.061 29.6685 184.803 29.0999H205.705C206.109 28.2314 206.453 27.3493 206.726 26.4336H183.799C183.286 24.6985 183.007 22.8484 183.023 20.8067H207.442C207.416 19.9581 207.337 19.0706 207.196 18.1357H183.205C183.384 16.6958 183.694 15.1587 184.161 13.5078L177.108 13.508ZM209.225 13.508C210.718 18.7637 210.655 22.8449 209.594 26.4337H209.57C209.091 28.337 208.356 30.1038 207.433 31.7884C205.096 36.045 201.457 39.8066 197.458 43.564C199.353 44.535 201.258 45.5054 203.144 46.5067C207.118 42.7732 210.993 38.7757 213.705 33.835C216.747 28.2891 218.139 21.5725 216.287 13.5078L209.225 13.508ZM190.047 49.7213C187.024 52.7478 184.183 56.0482 182.029 59.95C178.858 65.6941 177.403 72.7852 179.139 81.2758H185.922C185.174 78.115 184.959 75.1626 185.174 72.4296C185.243 71.3641 185.379 70.3456 185.583 69.3665H185.607C185.793 68.4656 186.032 67.5753 186.322 66.6999C186.325 66.69 186.328 66.6792 186.331 66.6691C186.77 65.3477 187.327 64.0648 187.995 62.8346C190.218 58.7353 193.326 55.5093 196.394 52.5883C194.296 51.6265 192.166 50.687 190.047 49.7213ZM197.123 52.9273C199.27 55.0033 201.268 57.0928 202.949 59.2856H193.76C193.047 60.1389 192.371 61.0255 191.748 61.9517H204.794C205.009 62.3013 205.214 62.6566 205.412 63.0129C206.064 64.1953 206.622 65.4171 207.069 66.7003H189.25C188.924 67.5534 188.653 68.4436 188.436 69.3668H207.809C208.17 71.1037 208.333 72.9641 208.245 74.9939H187.864C187.885 75.8565 187.951 76.7459 188.069 77.6598H207.999C207.84 78.8103 207.606 80.0135 207.293 81.2758H214.253C215.669 74.3389 214.957 68.3376 212.919 63.2404C208.69 58.6965 203.066 55.6825 197.123 52.9273Z" fill="#6F6F6F"/>
<path d="M8.56055 32.8386C8.56055 29.731 9.23475 26.967 10.5832 24.5466C11.963 22.0963 13.9073 20.1989 16.416 18.8543C18.9247 17.4797 21.8098 16.7925 25.0712 16.7925C29.2105 16.7925 32.6914 17.8532 35.5137 19.9748C38.336 22.0665 40.1549 24.9201 40.9702 28.5358H31.0451C30.4492 27.3405 29.6182 26.4291 28.552 25.8016C27.5171 25.1741 26.3098 24.8603 24.93 24.8603C22.7976 24.8603 21.0885 25.5925 19.8028 27.0567C18.5484 28.4909 17.9213 30.4183 17.9213 32.8386C17.9213 35.2889 18.5484 37.2461 19.8028 38.7103C21.0885 40.1446 22.7976 40.8618 24.93 40.8618C26.3098 40.8618 27.5171 40.548 28.552 39.9205C29.6182 39.293 30.4492 38.3816 31.0451 37.1863H40.9702C40.1549 40.802 38.336 43.6705 35.5137 45.7921C32.6914 47.8838 29.2105 48.9296 25.0712 48.9296C21.8098 48.9296 18.9247 48.2573 16.416 46.9126C13.9073 45.5381 11.963 43.6407 10.5832 41.2203C9.23475 38.77 8.56055 35.9762 8.56055 32.8386ZM96.9196 41.2203V48.7055H92.9214C86.1794 48.7055 82.8083 45.5232 82.8083 39.1585V30.8665H79.5629V23.5605H82.8083V17.4648H92.0749V23.5605H96.8727V30.8665H92.0749V39.293C92.0749 39.9802 92.2315 40.4733 92.5454 40.7721C92.8904 41.0709 93.4548 41.2203 94.2385 41.2203H96.9196ZM122.316 32.48C124.26 32.8984 125.796 33.8247 126.926 35.259C128.086 36.6634 128.666 38.277 128.666 40.0998C128.666 42.789 127.694 44.8957 125.75 46.4196C123.805 47.9436 121.077 48.7055 117.565 48.7055H101.148V17.1062H117.047C120.434 17.1062 123.084 17.8234 124.997 19.2576C126.941 20.6919 127.914 22.7089 127.914 25.3086C127.914 27.1612 127.397 28.715 126.362 29.97C125.358 31.1952 124.01 32.0318 122.316 32.48ZM110.368 29.6563H115.025C117.345 29.6563 118.506 28.7449 118.506 26.9222C118.506 25.0396 117.345 24.0984 115.025 24.0984H110.368V29.6563ZM115.73 41.6237C118.051 41.6237 119.212 40.6974 119.212 38.8448C119.212 37.8886 118.898 37.1565 118.271 36.6485C117.675 36.1405 116.812 35.8865 115.683 35.8865H110.368V41.6237H115.73ZM137.364 21.2298C135.733 21.2298 134.415 20.8115 133.412 19.9748C132.44 19.1082 131.954 18.0325 131.954 16.7476C131.954 15.4329 132.44 14.3422 133.412 13.4757C134.415 12.6091 135.733 12.1758 137.364 12.1758C138.963 12.1758 140.249 12.6091 141.221 13.4757C142.224 14.3422 142.726 15.4329 142.726 16.7476C142.726 18.0325 142.224 19.1082 141.221 19.9748C140.249 20.8115 138.963 21.2298 137.364 21.2298ZM141.926 23.5605V48.7055H132.706V23.5605H141.926ZM159.455 49.0193C156.82 49.0193 154.452 48.4963 152.351 47.4505C150.281 46.4047 148.651 44.9106 147.459 42.9683C146.267 41.0261 145.672 38.7402 145.672 36.1106C145.672 33.511 146.267 31.24 147.459 29.2977C148.682 27.3554 150.328 25.8614 152.398 24.8155C154.499 23.7697 156.867 23.2468 159.501 23.2468C162.136 23.2468 164.488 23.7697 166.557 24.8155C168.658 25.8614 170.304 27.3554 171.496 29.2977C172.719 31.24 173.331 33.511 173.331 36.1106C173.331 38.7103 172.719 40.9962 171.496 42.9683C170.304 44.9106 168.658 46.4047 166.557 47.4505C164.456 48.4963 162.089 49.0193 159.455 49.0193ZM159.455 41.3996C160.74 41.3996 161.807 40.9513 162.653 40.0549C163.531 39.1286 163.97 37.8139 163.97 36.1106C163.97 34.4074 163.531 33.1076 162.653 32.2111C161.807 31.3147 160.756 30.8665 159.501 30.8665C158.247 30.8665 157.196 31.3147 156.349 32.2111C155.503 33.1076 155.079 34.4074 155.079 36.1106C155.079 37.8437 155.487 39.1585 156.302 40.0549C157.118 40.9513 158.168 41.3996 159.455 41.3996Z" fill="#6F6F6F"/>
<path fill-rule="evenodd" clip-rule="evenodd" d="M60.4849 25.3364C57.7485 25.3364 57.4749 25.6129 56.0587 25.6129C54.8792 25.6129 51.3366 22.8594 49.5672 22.8594C47.7961 22.8594 45.7307 23.8513 45.7307 26.7141V30.0175C45.7345 30.8841 46.0637 33.5408 47.3578 32.8309C45.8288 34.5539 45.6754 36.5639 45.6956 38.5089C45.2834 38.6217 44.8637 38.7503 44.4551 38.8824C43.1905 39.2946 41.8482 39.8196 41.2436 40.1931C40.9347 40.3834 40.7177 40.6826 40.6404 41.0253C40.5631 41.3679 40.6317 41.7258 40.8312 42.0201C41.0308 42.3144 41.3451 42.5212 41.7046 42.5948C42.0641 42.6687 42.4396 42.6032 42.7485 42.413C43.037 42.2351 44.0816 41.7964 45.3518 41.3824L45.7734 41.2502C45.8584 42.0131 46.071 42.7124 46.3871 43.3466L46.3427 43.3696C45.5848 43.7502 44.8822 44.1888 44.4347 44.4672L44.2259 44.5975C43.917 44.7877 43.6999 45.0871 43.6226 45.4296C43.5453 45.7723 43.614 46.1301 43.8135 46.4244C44.0131 46.7189 44.3273 46.9255 44.6868 46.9993C45.0464 47.073 45.4218 47.0075 45.7307 46.8174L45.973 46.6658C46.426 46.3839 47.0066 46.0228 47.6388 45.7056C47.7869 45.6299 47.9292 45.5629 48.0659 45.5012C51.2646 48.3605 57.0091 49.2856 60.4849 49.2856C63.9607 49.2856 69.7053 48.3605 72.9037 45.5012C73.0407 45.5629 73.1811 45.6299 73.3309 45.7056C73.9632 46.0228 74.5438 46.3839 74.9968 46.6658L75.2389 46.8174C75.548 47.0075 75.9237 47.073 76.2831 46.9993C76.6424 46.9255 76.9564 46.7189 77.1561 46.4244C77.3558 46.1301 77.4246 45.7723 77.3475 45.4296C77.2696 45.0871 77.0532 44.7877 76.7438 44.5975L76.535 44.4672C75.9169 44.0734 75.2805 43.7072 74.6269 43.3696L74.5826 43.3466C74.8988 42.7124 75.1115 42.0131 75.1964 41.2502L75.618 41.3824C76.8883 41.7964 77.933 42.2351 78.2228 42.413C78.5314 42.5924 78.9021 42.65 79.2547 42.573C79.6072 42.4961 79.9143 42.2909 80.1103 42.0014C80.3062 41.7117 80.3758 41.3606 80.3047 41.0228C80.2328 40.685 80.0248 40.3872 79.726 40.1931C79.1215 39.8196 77.7795 39.2946 76.5168 38.8824C76.1053 38.7489 75.6907 38.6238 75.274 38.5072C75.2963 36.5623 75.1409 34.5539 73.6102 32.8309C74.9043 33.5408 75.2372 30.8841 75.2389 30.0156V26.7141C75.2389 23.8513 73.1737 22.8594 71.4026 22.8594C69.6332 22.8594 66.0907 25.6129 64.913 25.6129C63.495 25.6129 63.2213 25.3364 60.4849 25.3364ZM59.2368 41.5339C59.6103 41.4123 60.0523 41.3578 60.4849 41.3578C60.9175 41.3578 61.3594 41.4123 61.7347 41.5339C61.9196 41.5939 62.1415 41.6889 62.3412 41.8403C62.4781 41.9388 62.59 42.0652 62.6688 42.2104C62.7474 42.3555 62.7909 42.5157 62.7959 42.679C62.7959 43.0842 62.539 43.366 62.3412 43.5176C62.1434 43.6691 61.9177 43.7643 61.7347 43.8241C61.3307 43.9459 60.9087 44.0054 60.4849 44.0003C60.0618 44.0056 59.6403 43.9461 59.2368 43.8241C59.017 43.7563 58.8112 43.6526 58.6286 43.5176C58.4918 43.4193 58.3798 43.2927 58.301 43.1476C58.2224 43.0024 58.1788 42.8422 58.1737 42.679C58.1737 42.2738 58.4307 41.992 58.6286 41.8403C58.8265 41.6889 59.0538 41.5939 59.2368 41.5339ZM64.497 36.0725C64.7502 35.6708 65.2476 35.1916 65.9946 35.1916C66.7415 35.1916 67.2408 35.6708 67.4921 36.0725C67.7547 36.4935 67.8805 37.001 67.8805 37.5047C67.8805 38.0069 67.7547 38.5143 67.4921 38.9335C67.2408 39.3369 66.7415 39.8162 65.9946 39.8162C65.2476 39.8162 64.7502 39.3369 64.497 38.9353C64.2356 38.4995 64.1015 38.005 64.1088 37.5029C64.1088 37.001 64.2344 36.4935 64.497 36.0742V36.0725ZM53.4776 36.0725C53.7309 35.6708 54.2283 35.1916 54.9752 35.1916C55.7222 35.1916 56.2213 35.6708 56.4728 36.0725C56.7353 36.4935 56.8611 37.001 56.8611 37.5047C56.8611 38.0069 56.7353 38.5143 56.4728 38.9335C56.2213 39.3369 55.7222 39.8162 54.9752 39.8162C54.2283 39.8162 53.7309 39.3369 53.4776 38.9353C53.2164 38.4995 53.0823 38.005 53.0893 37.5029C53.0893 37.001 53.2151 36.4935 53.4776 36.0742V36.0725Z" fill="#6F6F6F"/>
</svg>
