<svg width="864" height="833" viewBox="0 0 864 833" fill="none" xmlns="http://www.w3.org/2000/svg">
<path d="M747.666 92.7933C693.16 58.8907 627.825 55.2033 570.259 83.4316C521.23 107.4 483.086 148.158 434.004 172.144C366.95 204.955 293.328 222.89 225.54 254.323C157.753 285.755 92.8656 335.016 68.5574 405.685C39.9174 489.153 49.9772 587.299 93.7785 663.606C164.985 787.635 306.216 831.687 442.184 830.076C729.497 826.693 877.494 478.717 830.614 228.636C820.375 174.453 795.423 122.489 747.666 92.7933Z" fill="#FFC100"/>
<path opacity="0.7" d="M747.666 92.7933C693.16 58.8907 627.825 55.2033 570.259 83.4316C521.23 107.4 483.086 148.158 434.004 172.144C366.95 204.955 293.328 222.89 225.54 254.323C157.753 285.755 92.8656 335.016 68.5574 405.685C39.9174 489.153 49.9772 587.299 93.7785 663.606C164.985 787.635 306.216 831.687 442.184 830.076C729.497 826.693 877.494 478.717 830.614 228.636C820.375 174.453 795.423 122.489 747.666 92.7933Z" fill="white"/>
<path d="M215.893 555.383L200.857 558.103L197.903 541.814L180.039 545.054L182.993 561.343L167.975 564.064L171.322 582.555L186.34 579.834L189.294 596.123L207.158 592.901L204.204 576.594L219.24 573.873L215.893 555.383Z" stroke="#FFC100" stroke-linecap="round" stroke-linejoin="round"/>
<path d="M366.003 305.856L351.593 300.772L357.106 285.163L339.994 279.113L334.481 294.722L320.071 289.638L313.824 307.36L328.216 312.443L322.703 328.07L339.815 334.102L345.346 318.493L359.738 323.577L366.003 305.856Z" stroke="#FFC100" stroke-linecap="round" stroke-linejoin="round"/>
<path d="M729.444 492.41L715.947 499.552L708.197 484.91L692.14 493.395L699.891 508.037L686.395 515.179L695.183 531.79L708.68 524.648L716.431 539.272L732.487 530.788L724.736 516.146L738.233 509.004L729.444 492.41Z" stroke="#FFC100" stroke-linecap="round" stroke-linejoin="round"/>
<path d="M153.099 516.576C159.149 516.576 164.054 511.671 164.054 505.621C164.054 499.571 159.149 494.666 153.099 494.666C147.049 494.666 142.145 499.571 142.145 505.621C142.145 511.671 147.049 516.576 153.099 516.576Z" stroke="#FFC100" stroke-linecap="round" stroke-linejoin="round"/>
<path d="M323.739 359.163C323.739 359.737 323.569 360.298 323.25 360.775C322.932 361.251 322.479 361.623 321.949 361.843C321.419 362.062 320.836 362.119 320.274 362.008C319.711 361.896 319.194 361.619 318.789 361.214C318.383 360.808 318.107 360.292 317.995 359.729C317.883 359.167 317.941 358.584 318.16 358.054C318.38 357.524 318.751 357.071 319.228 356.752C319.705 356.434 320.266 356.264 320.839 356.264C321.608 356.264 322.346 356.569 322.89 357.113C323.434 357.657 323.739 358.394 323.739 359.163Z" stroke="#FFC100" stroke-linecap="round" stroke-linejoin="round"/>
<path d="M191.048 309.418C191.048 311.444 190.447 313.423 189.322 315.107C188.197 316.791 186.598 318.103 184.727 318.878C182.856 319.653 180.798 319.856 178.812 319.461C176.825 319.065 175.001 318.09 173.569 316.658C172.137 315.226 171.162 313.402 170.767 311.416C170.372 309.43 170.575 307.371 171.35 305.5C172.125 303.629 173.437 302.03 175.121 300.905C176.805 299.78 178.784 299.18 180.809 299.18C183.523 299.184 186.125 300.265 188.044 302.184C189.963 304.103 191.043 306.704 191.048 309.418Z" stroke="#FFC100" stroke-linecap="round" stroke-linejoin="round"/>
<path d="M642.181 448.108C642.181 449.255 641.841 450.377 641.204 451.33C640.567 452.284 639.661 453.027 638.601 453.466C637.541 453.905 636.375 454.02 635.25 453.796C634.125 453.573 633.092 453.02 632.281 452.209C631.47 451.398 630.917 450.365 630.693 449.24C630.47 448.115 630.585 446.949 631.024 445.889C631.462 444.829 632.206 443.923 633.16 443.286C634.113 442.649 635.235 442.309 636.382 442.309C637.92 442.309 639.395 442.92 640.483 444.007C641.57 445.095 642.181 446.57 642.181 448.108Z" stroke="#FFC100" stroke-linecap="round" stroke-linejoin="round"/>
<path d="M583.558 271.346C590.725 271.346 596.535 265.535 596.535 258.368C596.535 251.201 590.725 245.391 583.558 245.391C576.39 245.391 570.58 251.201 570.58 258.368C570.58 265.535 576.39 271.346 583.558 271.346Z" stroke="#FFC100" stroke-linecap="round" stroke-linejoin="round"/>
<path d="M503.652 375.021C504.332 376.042 524.863 380.141 535.514 395.624C541.71 404.52 546.909 414.07 551.015 424.103C551.015 424.103 568.826 434.7 577.955 443.435C587.084 452.17 597.967 463.77 606.362 469.856C614.757 475.942 632.031 487.487 636.38 501.002C636.38 501.002 610.479 571.939 603.158 587.62C595.837 603.3 577.776 636.576 577.776 636.576L545.556 773.458H358.662L352.289 726.506C352.289 726.506 295.009 715.265 271.077 694.286C271.077 694.286 268.822 642.376 278.828 596.069C288.834 549.761 322.862 453.477 345.917 424.068C345.917 424.068 382.737 406.454 415.226 400.798C415.226 400.798 436.312 384.133 450.113 382.36C463.914 380.588 503.652 375.021 503.652 375.021Z" fill="white"/>
<path d="M354.813 747.664C371.406 750.832 385.869 753.571 402.767 753.374C419.665 753.177 436.92 749.382 450.739 739.698C453.409 737.476 456.435 735.721 459.689 734.507C467.028 732.449 474.295 737.3 481.581 739.555C490.817 742.419 500.949 741.059 510.006 737.622C519.063 734.185 527.208 728.833 535.281 723.499C534.087 739.967 533.7 756.465 534.117 772.992L545.627 773.458L575.108 643.736C575.108 643.736 524.684 702.305 500.107 719.793L452.959 707.657C452.959 707.657 448.519 711.345 439.176 713.206C439.176 713.206 434.898 729.656 410.84 729.692C386.782 729.728 352.289 726.506 352.289 726.506L354.813 747.664Z" fill="#FFC100"/>
<path opacity="0.5" d="M354.813 747.664C371.406 750.832 385.869 753.571 402.767 753.374C419.665 753.177 436.92 749.382 450.739 739.698C453.409 737.476 456.435 735.721 459.689 734.507C467.028 732.449 474.295 737.3 481.581 739.555C490.817 742.419 500.949 741.059 510.006 737.622C519.063 734.185 527.208 728.833 535.281 723.499C534.087 739.967 533.7 756.465 534.117 772.992L545.627 773.458L575.108 643.736C575.108 643.736 524.684 702.305 500.107 719.793L452.959 707.657C452.959 707.657 448.519 711.345 439.176 713.206C439.176 713.206 434.898 729.656 410.84 729.692C386.782 729.728 352.289 726.506 352.289 726.506L354.813 747.664Z" fill="white"/>
<path d="M306.502 505.621C306.502 505.621 284.61 611.893 285.72 648.392C285.72 648.392 315.47 640.05 336.234 648.392C336.234 648.392 300.899 644.453 285.684 660.653C270.469 676.852 317.296 719.419 410.984 710.773C410.984 710.773 429.672 716.626 439.159 713.189C439.159 713.189 436.617 730.123 410.823 729.675C385.137 728.655 309.993 728.029 271.06 694.305C271.078 694.323 266.173 596.625 306.502 505.621Z" fill="#FFC100"/>
<path opacity="0.6" d="M306.502 505.621C306.502 505.621 284.61 611.893 285.72 648.392C285.72 648.392 315.47 640.05 336.234 648.392C336.234 648.392 300.899 644.453 285.684 660.653C270.469 676.852 317.296 719.419 410.984 710.773C410.984 710.773 429.672 716.626 439.159 713.189C439.159 713.189 436.617 730.123 410.823 729.675C385.137 728.655 309.993 728.029 271.06 694.305C271.078 694.323 266.173 596.625 306.502 505.621Z" fill="white"/>
<path d="M351.27 525.99C351.27 525.99 357.731 573.049 368.167 582.894C378.603 592.739 427.237 589.517 446.498 600.132C446.498 600.132 464.63 568.718 497.423 549.063L452.959 619.07L414.528 609.995L367.612 602.835L363.674 611.892H356.622C356.622 611.892 355.834 561.665 351.27 525.99Z" fill="#FFC100"/>
<path opacity="0.5" d="M351.27 525.99C351.27 525.99 357.731 573.049 368.167 582.894C378.603 592.739 427.237 589.517 446.498 600.132C446.498 600.132 464.63 568.718 497.423 549.063L452.959 619.07L414.528 609.995L367.612 602.835L363.674 611.892H356.622C356.622 611.892 355.834 561.665 351.27 525.99Z" fill="white"/>
<path d="M535.085 430.136C555.187 441.968 557.442 455.303 561.577 464.826C551.124 466.903 540.312 469.122 531.684 475.369C520.944 483.174 515.127 496.097 510.616 508.645C506.349 520.52 502.763 532.628 499.876 544.911C509.592 527.359 523.402 512.412 540.133 501.342C549.781 494.97 561.703 489.832 572.711 493.43C563.475 497.35 553.021 502.649 551.07 512.494C550.686 514.128 550.754 515.836 551.267 517.434C552.914 522.07 558.677 523.323 563.045 525.579C571.565 529.964 576.005 539.899 576.381 549.529C576.757 559.159 573.803 568.467 570.885 577.578C568.32 585.562 565.754 593.545 563.188 601.528C559.913 611.731 556.583 622.078 550.658 631.028C544.733 639.978 535.837 647.478 525.258 649.232C520.835 650.085 516.258 649.567 512.137 647.746C509.014 646.048 506.111 643.975 503.492 641.571C490.8 631.321 475.549 624.735 459.386 622.525C480.186 636.272 490.031 661.243 498.659 684.638C494.697 677.703 488.989 671.927 482.101 667.884C480.336 666.654 478.238 665.993 476.087 665.986C470.431 666.434 468.641 673.648 465.24 678.158C461.158 683.528 453.694 685.444 446.999 684.584C440.305 683.725 434.147 680.593 428.133 677.424L352.04 638.188L346.67 654.298C346.67 654.298 407.279 702.628 500.145 719.722C500.145 719.722 560.467 672.054 581.84 629.793C603.213 587.531 636.417 500.913 636.417 500.913C636.417 500.913 624.263 477.893 603.427 465.882C603.427 465.882 587.872 458.525 584.597 449.432C581.321 440.339 552.09 424.641 552.09 424.641C552.09 424.641 555.885 434.342 535.085 430.136Z" fill="#FFC100"/>
<path opacity="0.6" d="M535.085 430.136C555.187 441.968 557.442 455.303 561.577 464.826C551.124 466.903 540.312 469.122 531.684 475.369C520.944 483.174 515.127 496.097 510.616 508.645C506.349 520.52 502.763 532.628 499.876 544.911C509.592 527.359 523.402 512.412 540.133 501.342C549.781 494.97 561.703 489.832 572.711 493.43C563.475 497.35 553.021 502.649 551.07 512.494C550.686 514.128 550.754 515.836 551.267 517.434C552.914 522.07 558.677 523.323 563.045 525.579C571.565 529.964 576.005 539.899 576.381 549.529C576.757 559.159 573.803 568.467 570.885 577.578C568.32 585.562 565.754 593.545 563.188 601.528C559.913 611.731 556.583 622.078 550.658 631.028C544.733 639.978 535.837 647.478 525.258 649.232C520.835 650.085 516.258 649.567 512.137 647.746C509.014 646.048 506.111 643.975 503.492 641.571C490.8 631.321 475.549 624.735 459.386 622.525C480.186 636.272 490.031 661.243 498.659 684.638C494.697 677.703 488.989 671.927 482.101 667.884C480.336 666.654 478.238 665.993 476.087 665.986C470.431 666.434 468.641 673.648 465.24 678.158C461.158 683.528 453.694 685.444 446.999 684.584C440.305 683.725 434.147 680.593 428.133 677.424L352.04 638.188L346.67 654.298C346.67 654.298 407.279 702.628 500.145 719.722C500.145 719.722 560.467 672.054 581.84 629.793C603.213 587.531 636.417 500.913 636.417 500.913C636.417 500.913 624.263 477.893 603.427 465.882C603.427 465.882 587.872 458.525 584.597 449.432C581.321 440.339 552.09 424.641 552.09 424.641C552.09 424.641 555.885 434.342 535.085 430.136Z" fill="white"/>
<path d="M528.695 265.368C528.695 265.368 532.758 217.986 512.335 213.458C491.911 208.929 480.437 190.188 480.437 190.188L407.978 210.415L396.736 253.983L403.896 276.036C403.896 276.036 405.4 296.496 405.686 306.609C405.973 316.723 405.686 324.509 413.348 336.788C421.009 349.068 428.133 361.258 444.69 371.872V399.779C444.69 399.779 434.452 429.654 440.108 447.983C440.108 447.983 443.491 451.563 452.835 446.193C462.179 440.823 502.149 414.117 516.094 386.228L520.425 315.326C520.425 315.326 531.935 317.116 536.893 306.627C544.179 296.37 543.892 284.413 541.064 274.675C538.236 264.938 526.064 271.239 526.064 271.239L528.695 265.368Z" fill="#999999"/>
<path d="M445.477 334.837C447.525 332.606 450.05 330.865 452.864 329.743C455.678 328.621 458.708 328.147 461.73 328.357C461.73 328.357 470.447 314.592 479.63 317.116C479.63 317.116 482.458 331.704 471.449 337.45C457.129 344.914 445.477 334.837 445.477 334.837Z" fill="#737373"/>
<path d="M418.556 204.381C418.556 204.381 401.211 227.168 402.214 250.921C403.216 274.674 406.671 291.518 405.668 309.848C404.666 328.177 423.998 358.876 443.813 371.245C458.617 380.499 477.179 378.924 491.588 369.455C507.698 358.715 516.559 339.418 519.799 320.892C520.121 319.102 520.372 317.312 520.551 315.379" stroke="#263238" stroke-linecap="round" stroke-linejoin="round"/>
<path d="M443.811 371.263C443.811 371.263 446.622 396.932 443.811 405.721C440.715 415.369 436.974 437.833 440.231 447.983C443.489 458.132 504.439 415.476 516.217 386.21C516.217 386.21 517.846 329.342 521.909 315.129" stroke="#263238" stroke-linecap="round" stroke-linejoin="round"/>
<path d="M442.129 334.21C442.129 334.21 469.856 342.05 481.205 313.428" stroke="#263238" stroke-linecap="round" stroke-linejoin="round"/>
<path d="M444.367 377.438C444.367 377.438 450.274 395.749 463.019 396.841C475.764 397.933 507.644 372.39 518.509 342.3V327.246C518.509 327.246 509.559 366.626 483.353 373.786C457.148 380.946 444.886 371.835 444.886 371.835L444.367 377.438Z" fill="#263238"/>
<path d="M479.612 317.116C467.297 316.257 461.712 328.357 461.712 328.357C458.677 327.987 455.597 328.386 452.757 329.519C449.917 330.651 447.407 332.48 445.459 334.837C448.493 337.558 452.223 339.384 456.234 340.111C460.244 340.838 464.378 340.438 468.174 338.954C482.172 334.085 479.612 317.116 479.612 317.116Z" stroke="#263238" stroke-linecap="round" stroke-linejoin="round"/>
<path d="M448.735 263.129C448.888 268.808 448.637 274.491 447.984 280.134C447.321 285.2 444.976 290.051 443.025 294.812C441.235 299.144 438.246 305.803 440.734 310.367C443.562 315.54 452.96 310.367 452.96 310.367" stroke="#263238" stroke-linecap="round" stroke-linejoin="round"/>
<path d="M458.74 309.294C461.909 309.724 466.401 309.294 467.296 303.799" stroke="#263238" stroke-linecap="round" stroke-linejoin="round"/>
<path d="M468.98 256.292C472.043 253.37 476.114 251.74 480.347 251.74C484.58 251.74 488.65 253.37 491.713 256.292" stroke="#263238" stroke-width="2" stroke-linecap="round" stroke-linejoin="round"/>
<path d="M432.858 260.766C432.858 260.766 424.463 250.026 413.473 260.766" stroke="#263238" stroke-width="2" stroke-linecap="round" stroke-linejoin="round"/>
<path d="M513.963 287.921C513.963 287.921 523.539 264.919 536.034 269.859C544.643 273.278 545.163 288.135 540.598 298.499C536.034 308.864 533.742 319.425 518.527 313.518" stroke="#263238" stroke-linecap="round" stroke-linejoin="round"/>
<path d="M515.664 284.394C515.664 284.394 506.463 281.137 504.763 266.19C503.062 251.244 512.227 236.279 508.826 225.539C505.425 214.799 478.629 220.169 472.525 201.446C472.525 201.446 452.405 216.446 413.455 213.224C413.455 213.224 405.239 227.222 403.807 235.778C401.889 249.156 401.937 262.743 403.95 276.107C403.95 276.572 404.111 277.02 404.2 277.485C406.993 292.056 393.085 257.652 393.46 242.956C393.836 228.26 384.976 209.59 396.521 195.682C408.067 181.774 450.4 173.629 458.742 167.096C467.083 160.562 483.301 177.961 502.042 184.369C520.783 190.777 536.32 198.421 533.958 225.002C531.595 251.584 534.083 255.146 534.19 269.144C534.19 269.179 525.527 265.922 515.664 284.394Z" fill="#263238"/>
<path d="M480.382 275.658C480.382 279.238 479.004 282.21 477.286 282.21C475.567 282.21 474.207 279.274 474.207 275.658C474.207 272.043 475.585 269.125 477.286 269.125C478.986 269.125 480.382 272.078 480.382 275.658Z" fill="#263238"/>
<path d="M432.857 275.658C432.857 279.238 431.479 282.21 429.778 282.21C428.078 282.21 426.699 279.274 426.699 275.658C426.699 272.043 428.078 269.125 429.778 269.125C431.479 269.125 432.857 272.078 432.857 275.658Z" fill="#263238"/>
<path d="M468.98 284.395C468.98 284.395 475.371 291.179 483.462 292.145" stroke="#263238" stroke-linecap="round" stroke-linejoin="round"/>
<path d="M425.447 292.145C425.447 292.145 437.136 291.322 439.767 284.395" stroke="#263238" stroke-linecap="round" stroke-linejoin="round"/>
<path d="M452.619 452.332C461.319 446.801 472.828 448.877 482.351 452.797C487.578 454.963 492.554 457.684 497.763 459.957C500.338 461.096 502.995 462.041 505.711 462.785C512.244 464.486 509.899 456.377 509.523 452.743C508.986 447.534 508.61 442.308 507.984 437.135C507.727 436.063 507.853 434.936 508.342 433.948C508.984 433.152 509.882 432.602 510.884 432.391C522.358 428.811 534.726 430.386 546.684 430.601C547.769 430.729 548.869 430.523 549.834 430.01C551.624 428.847 551.427 426.216 550.944 424.139C546.809 406.454 532.22 388.858 516.361 380.016" stroke="#263238" stroke-linecap="round" stroke-linejoin="round"/>
<path d="M444.815 382.881C436.921 386.174 428.812 389.593 422.01 394.641C419.543 396.441 417.269 398.492 415.226 400.763C413.581 402.329 412.546 404.429 412.309 406.688C412.353 407.739 412.631 408.766 413.124 409.695C413.616 410.624 414.31 411.432 415.155 412.058C416.356 413.047 417.68 413.877 419.093 414.528C422.386 416.085 426.253 417.607 427.649 420.918C427.988 421.612 428.113 422.391 428.007 423.156C427.829 423.828 427.484 424.443 427.005 424.946C424.284 428.257 419.487 430.817 419.845 435.095C420.077 438.407 423.425 440.465 426.396 441.933C429.367 443.401 432.84 444.922 433.86 448.091" stroke="#263238" stroke-linecap="round" stroke-linejoin="round"/>
<path d="M398.078 215.032C399.242 207.872 406.724 203.254 413.92 202.09C421.115 200.927 428.508 202.09 435.758 201.464C441.821 200.864 447.685 198.971 452.953 195.91C458.221 192.85 462.771 188.695 466.295 183.725" stroke="white" stroke-linecap="round" stroke-linejoin="round"/>
<path d="M406.223 194.912C419.218 187.232 437.476 195.216 450.149 187.018C453.736 184.407 456.858 181.212 459.386 177.566" stroke="white" stroke-linecap="round" stroke-linejoin="round"/>
<path d="M571.994 488.67C525.454 497.96 508.091 532.203 508.091 532.203L452.959 619.036" stroke="#263238" stroke-linecap="round" stroke-linejoin="round"/>
<path d="M532.65 479.29C536.512 475.713 540.886 472.732 545.628 470.447" stroke="#263238" stroke-linecap="round" stroke-linejoin="round"/>
<path d="M500.107 544.839C500.107 544.839 505.979 513.478 522.84 490.369" stroke="#263238" stroke-linecap="round" stroke-linejoin="round"/>
<path d="M356.621 611.749C356.621 611.749 354.204 515.68 345.881 501.002" stroke="#263238" stroke-linecap="round" stroke-linejoin="round"/>
<path d="M551.015 424.104C551.015 424.104 577.865 440.214 589.787 455.357C601.708 470.5 629.883 480.56 636.327 501.002C636.327 501.002 599.22 617.925 560.341 660.187C521.462 702.449 500.054 719.794 500.054 719.794C500.054 719.794 406.526 703.54 345.863 652.597L367.558 602.746C367.558 602.746 428.722 610.478 452.905 619.07C477.088 627.662 500.054 679.698 500.054 679.698" stroke="#263238" stroke-linecap="round" stroke-linejoin="round"/>
<path d="M452.959 619.07C452.959 619.07 495.776 627.394 509.684 646.887" stroke="#263238" stroke-linecap="round" stroke-linejoin="round"/>
<path d="M576.164 639.119L545.627 773.459H358.661L352.289 726.507" stroke="#263238" stroke-linecap="round" stroke-linejoin="round"/>
<path d="M439.176 713.206C428.848 734.364 415.226 729.692 415.226 729.692C309.885 733.684 271.077 694.322 271.077 694.322C271.077 694.322 265.707 638.957 286.418 564.242C307.128 489.528 345.917 424.103 345.917 424.103C363.119 412.665 401.497 403.733 412.326 401.37L415.226 400.762" stroke="#263238" stroke-linecap="round" stroke-linejoin="round"/>
<path d="M415.279 729.692C415.279 729.692 409.712 728.779 411.127 691.869" stroke="#263238" stroke-linecap="round" stroke-linejoin="round"/>
<path d="M348.764 654.96C348.764 654.96 322.451 645.688 289.855 668.242" stroke="#263238" stroke-linecap="round" stroke-linejoin="round"/>
<path d="M295.762 646.887C295.762 646.887 330.237 636.63 345.882 653.062" stroke="#263238" stroke-linecap="round" stroke-linejoin="round"/>
<path d="M342.158 652.133L346.633 654.37L363.674 611.804C363.674 611.804 346.024 608.922 318.064 643.738C326.795 643.839 335.254 646.787 342.158 652.133Z" fill="#999999" stroke="#263238" stroke-miterlimit="10"/>
<path d="M411.074 691.869V710.789C411.074 710.789 435.186 717.949 453.032 707.657L411.074 691.869Z" fill="#999999" stroke="#263238" stroke-miterlimit="10"/>
<path d="M541.762 430.404C541.779 430.753 541.743 431.104 541.654 431.442C540.903 434.396 522.519 503.794 463.682 534.671C463.17 534.946 462.598 535.087 462.017 535.083C461.217 535.083 460.441 534.814 459.811 534.321C459.181 533.827 458.735 533.137 458.544 532.361C458.352 531.584 458.426 530.765 458.754 530.036C459.082 529.306 459.645 528.707 460.353 528.335C514.053 500.178 532.973 436.007 534.62 430.1L541.762 430.404Z" fill="#263238"/>
<path d="M415.154 412.004C405.853 433.249 400.834 456.12 400.387 479.308C400.387 481.187 400.387 483.103 400.387 485.054C400.387 485.537 400.387 486.02 400.387 486.504C399.853 486.522 399.32 486.576 398.793 486.665C396.857 486.971 394.979 487.574 393.227 488.455C393.227 485.824 393.227 483.264 393.227 480.74C393.996 440.572 405.989 413.239 412.38 401.425L415.279 400.816C413.634 402.382 412.599 404.482 412.362 406.741C412.415 407.769 412.693 408.773 413.175 409.682C413.657 410.591 414.333 411.384 415.154 412.004Z" fill="#263238"/>
<path d="M485.644 518.527C489.833 524.344 486.396 534.01 477.947 540.114C469.499 546.218 459.26 546.433 455.053 540.615C450.847 534.798 454.284 525.132 462.732 519.028C471.181 512.924 481.509 512.709 485.644 518.527Z" fill="white" stroke="#263238" stroke-linecap="round" stroke-linejoin="round"/>
<path d="M475.227 515.072C478.198 519.189 475.764 526.027 469.857 530.341C463.95 534.655 456.629 534.816 453.747 530.699C450.865 526.582 453.21 519.744 459.117 515.43C465.024 511.117 472.255 510.973 475.227 515.072Z" fill="white" stroke="#263238" stroke-linecap="round" stroke-linejoin="round"/>
<path d="M427.917 587.728C427.154 588.235 426.227 588.43 425.324 588.274C424.422 588.118 423.614 587.623 423.066 586.889C422.518 586.155 422.272 585.24 422.379 584.331C422.485 583.421 422.936 582.587 423.639 582C423.943 581.749 435.954 571.528 430.691 537.107C430.244 534.189 429.671 531.074 428.901 527.799C426.628 517.363 423.12 504.153 415.942 494.451C414.234 491.892 411.896 489.816 409.152 488.424C406.409 487.032 403.353 486.371 400.279 486.503C399.745 486.522 399.213 486.575 398.686 486.665C396.749 486.97 394.871 487.574 393.119 488.455C387.772 491.217 383.713 495.956 381.806 501.665L381.162 503.455C377.103 514.432 373.784 525.668 371.227 537.089C368.363 551.14 367.397 565.872 372.48 576.165C373.843 578.989 375.783 581.495 378.176 583.521C380.569 585.547 383.361 587.047 386.371 587.925C387.179 588.19 387.866 588.735 388.309 589.461C388.752 590.188 388.922 591.048 388.789 591.888C388.655 592.728 388.227 593.493 387.58 594.046C386.934 594.599 386.112 594.904 385.261 594.906C384.884 594.905 384.509 594.845 384.151 594.727C380.237 593.552 376.609 591.577 373.497 588.927C370.385 586.277 367.857 583.01 366.072 579.333C360.344 567.752 361.096 551.982 363.996 537.089C366.567 524.841 370.049 512.803 374.414 501.074L375.058 499.284C376.465 495.024 378.822 491.139 381.951 487.923C385.08 484.708 388.899 482.245 393.119 480.722C394.58 480.216 396.084 479.844 397.612 479.612C398.525 479.487 399.402 479.397 400.333 479.343C404.523 479.228 408.675 480.166 412.408 482.07C416.142 483.975 419.339 486.785 421.705 490.245C429.689 500.985 433.484 515.179 435.9 526.313C436.741 530.144 437.386 533.742 437.869 537.143C443.526 575.735 428.615 587.227 427.917 587.728Z" fill="#263238" stroke="#263238" stroke-miterlimit="10"/>
<path d="M382.755 594.279C382.755 594.279 395.732 599.649 399.026 594.279C402.32 588.909 399.653 586.385 395.16 585.955C390.682 585.726 386.195 585.726 381.717 585.955L382.755 594.279Z" fill="#263238" stroke="#263238" stroke-miterlimit="10"/>
<path d="M388.717 592.489C388.483 593.207 388.028 593.833 387.417 594.276C386.806 594.72 386.071 594.959 385.316 594.96C384.939 594.959 384.564 594.898 384.206 594.781C380.291 593.605 376.663 591.63 373.551 588.98C370.439 586.331 367.911 583.064 366.127 579.387C360.399 567.805 361.151 552.035 364.051 537.143H371.211C368.347 551.194 367.38 565.926 372.464 576.218C373.826 579.042 375.766 581.549 378.159 583.575C380.552 585.601 383.344 587.101 386.354 587.979C386.807 588.117 387.228 588.344 387.592 588.647C387.957 588.949 388.257 589.321 388.477 589.741C388.697 590.16 388.831 590.619 388.872 591.091C388.914 591.563 388.861 592.038 388.717 592.489Z" fill="white" stroke="#263238" stroke-linecap="round" stroke-linejoin="round"/>
<path d="M415.96 583.843C415.42 584.483 415.022 585.231 414.79 586.036C414.559 586.841 414.5 587.685 414.617 588.515C414.975 589.741 415.751 590.803 416.81 591.516C417.87 592.229 419.146 592.547 420.417 592.417C422.959 592.079 425.283 590.802 426.932 588.837C428.722 586.832 434.934 573.711 429.188 575.967C425.017 577.542 418.752 580.209 415.96 583.843Z" fill="#263238" stroke="#263238" stroke-miterlimit="10"/>
<path d="M427.918 587.729C427.155 588.236 426.227 588.431 425.325 588.275C424.423 588.119 423.615 587.623 423.067 586.89C422.519 586.156 422.273 585.241 422.38 584.331C422.486 583.422 422.937 582.588 423.639 582.001C423.944 581.75 435.955 571.529 430.692 537.107H437.852C443.526 575.736 428.616 587.227 427.918 587.729Z" fill="white" stroke="#263238" stroke-linecap="round" stroke-linejoin="round"/>
<path opacity="0.2" d="M460.03 271.346C460.03 271.346 482.566 259.639 503.276 271.346C503.276 271.346 503.616 288.619 495.794 295.725C493.02 298.249 480.311 298.679 475.496 298.249C455.949 296.477 460.03 271.346 460.03 271.346Z" fill="white"/>
<path opacity="0.2" d="M445.889 271.346C445.889 271.346 423.353 259.639 402.66 271.346C402.66 271.346 402.32 288.619 410.125 295.725C412.899 298.249 425.626 298.679 430.423 298.249C449.97 296.477 445.889 271.346 445.889 271.346Z" fill="white"/>
<path d="M460.03 271.346C460.03 271.346 482.566 259.639 503.276 271.346C503.276 271.346 503.616 288.619 495.794 295.725C493.02 298.249 480.311 298.679 475.496 298.249C455.949 296.477 460.03 271.346 460.03 271.346Z" stroke="#263238" stroke-miterlimit="10"/>
<path d="M445.889 271.346C445.889 271.346 423.353 259.639 402.66 271.346C402.66 271.346 402.32 288.619 410.125 295.725C412.899 298.249 425.626 298.679 430.423 298.249C449.97 296.477 445.889 271.346 445.889 271.346Z" stroke="#263238" stroke-miterlimit="10"/>
<path d="M445.889 271.346C445.889 271.346 450.936 267.641 460.03 271.346" stroke="#263238" stroke-miterlimit="10"/>
<path d="M503.275 271.346L512.691 275.713" stroke="#263238" stroke-miterlimit="10"/>
<path d="M142.877 821.11L209.125 758.531H734.919L774.729 821.11H142.877Z" fill="white" stroke="#263238" stroke-linecap="round" stroke-linejoin="round"/>
<path d="M774.729 821.109H142.877V837.953H774.729V821.109Z" fill="#263238" stroke="#263238" stroke-linecap="round" stroke-linejoin="round"/>
<path d="M209.125 805.644V792.666H312.945V805.644H292.915H209.125Z" fill="white" stroke="#263238" stroke-miterlimit="10"/>
<path d="M209.125 792.665L270.45 751.531L352.289 753.464L312.945 792.665H209.125Z" fill="white" stroke="#263238" stroke-linecap="round" stroke-linejoin="round"/>
<path d="M312.945 805.643L352.29 766.228V753.465L312.945 792.666V805.643Z" fill="white" stroke="#263238" stroke-linecap="round" stroke-linejoin="round"/>
<path d="M310.135 789.391C310.135 789.391 301.848 791.037 301.848 798.215C301.848 805.393 309.008 807.505 309.008 807.505" stroke="#263238" stroke-width="2" stroke-linecap="round" stroke-linejoin="round"/>
<path d="M301.846 789.391C301.846 789.391 293.559 791.037 293.559 798.215C293.559 805.393 300.719 807.505 300.719 807.505" stroke="#263238" stroke-width="2" stroke-linecap="round" stroke-linejoin="round"/>
<path d="M293.559 789.391C293.559 789.391 285.271 791.037 285.271 798.215C285.271 805.393 292.431 807.505 292.431 807.505" stroke="#263238" stroke-width="2" stroke-linecap="round" stroke-linejoin="round"/>
<path d="M285.272 789.391C285.272 789.391 276.984 791.037 276.984 798.215C276.984 805.393 284.144 807.505 284.144 807.505" stroke="#263238" stroke-width="2" stroke-linecap="round" stroke-linejoin="round"/>
<path d="M276.983 789.391C276.983 789.391 268.695 791.037 268.695 798.215C268.695 805.393 275.855 807.505 275.855 807.505" stroke="#263238" stroke-width="2" stroke-linecap="round" stroke-linejoin="round"/>
<path d="M268.696 789.391C268.696 789.391 260.408 791.037 260.408 798.215C260.408 805.393 267.568 807.505 267.568 807.505" stroke="#263238" stroke-width="2" stroke-linecap="round" stroke-linejoin="round"/>
<path d="M260.409 789.391C260.409 789.391 252.121 791.037 252.121 798.215C252.121 805.393 259.281 807.505 259.281 807.505" stroke="#263238" stroke-width="2" stroke-linecap="round" stroke-linejoin="round"/>
<path d="M252.122 789.391C252.122 789.391 243.834 791.037 243.834 798.215C243.834 805.393 250.994 807.505 250.994 807.505" stroke="#263238" stroke-width="2" stroke-linecap="round" stroke-linejoin="round"/>
<path d="M242.813 789.391C242.813 789.391 234.525 791.037 234.525 798.215C234.525 805.393 241.685 807.505 241.685 807.505" stroke="#263238" stroke-width="2" stroke-linecap="round" stroke-linejoin="round"/>
<path d="M233.487 789.391C233.487 789.391 225.199 791.037 225.199 798.215C225.199 805.393 232.359 807.505 232.359 807.505" stroke="#263238" stroke-width="2" stroke-linecap="round" stroke-linejoin="round"/>
<path d="M223.124 789.391C223.124 789.391 214.836 791.037 214.836 798.215C214.836 805.393 221.996 807.505 221.996 807.505" stroke="#263238" stroke-width="2" stroke-linecap="round" stroke-linejoin="round"/>
<path d="M275.66 761.609C269.943 764.763 265.411 769.697 262.754 775.661C270.29 773.28 276.251 767.91 281.961 762.54L275.767 777.898C278.618 777.667 281.375 776.766 283.813 775.271C286.251 773.775 288.303 771.725 289.801 769.288C289.31 769.5 288.87 769.813 288.508 770.207C288.147 770.6 287.873 771.066 287.704 771.573C287.535 772.08 287.475 772.617 287.528 773.148C287.581 773.68 287.745 774.195 288.011 774.658C293.202 773.907 296.513 768.895 299.127 764.348C299.607 766.878 299.793 769.455 299.682 772.027C304.022 772.649 308.451 772.087 312.498 770.398" stroke="#263238" stroke-width="0.75" stroke-linecap="round" stroke-linejoin="round"/>
<path d="M731.413 695.844H550.963V794.92H731.413V695.844Z" fill="white" stroke="#263238" stroke-linecap="round" stroke-linejoin="round"/>
<path d="M550.264 794.903L521.248 767.319V668.242L550.264 695.844V794.903Z" fill="white" stroke="#263238" stroke-linecap="round" stroke-linejoin="round"/>
<path d="M731.413 695.844L702.397 668.242H521.965L550.963 695.844H731.413Z" fill="white" stroke="#263238" stroke-linecap="round" stroke-linejoin="round"/>
<path d="M665.057 733.005H649.108V716.322H626.625V733.005H609.227V755.487H626.625V772.152H649.108V755.487H665.057V733.005Z" fill="#FFC100" stroke="#263238" stroke-miterlimit="10"/>
<path d="M639.621 695.844L610.605 668.242" stroke="#263238" stroke-linecap="round" stroke-linejoin="round"/>
<path d="M258.202 274.755C279.25 253.707 279.25 219.582 258.202 198.534C237.154 177.486 203.028 177.486 181.98 198.534C160.932 219.582 160.932 253.707 181.98 274.755C203.028 295.803 237.154 295.803 258.202 274.755Z" fill="white" stroke="#263238" stroke-linecap="round" stroke-linejoin="round"/>
<path d="M264.921 228.386C264.92 231.994 263.789 235.51 261.686 238.442C259.583 241.373 256.614 243.572 253.196 244.728L229.121 252.837L199.818 262.736C195.502 264.155 190.799 263.81 186.736 261.777C182.672 259.744 179.577 256.187 178.124 251.882C176.672 247.576 176.98 242.871 178.981 238.792C180.983 234.713 184.516 231.59 188.81 230.104L215.427 221.154L242.17 212.204C244.757 211.334 247.514 211.091 250.214 211.494C252.913 211.898 255.478 212.936 257.698 214.525C259.918 216.114 261.728 218.207 262.981 220.632C264.233 223.058 264.892 225.746 264.903 228.475L264.921 228.386Z" fill="white"/>
<path d="M264.919 228.386C264.919 231.994 263.787 235.511 261.684 238.442C259.581 241.374 256.612 243.572 253.195 244.729L229.119 252.837C228.477 240.977 223.621 229.735 215.426 221.137L242.168 212.187C244.756 211.316 247.512 211.073 250.212 211.477C252.912 211.88 255.477 212.919 257.697 214.508C259.916 216.096 261.727 218.189 262.979 220.615C264.232 223.04 264.891 225.728 264.901 228.458L264.919 228.386Z" fill="#FFC100"/>
<path d="M264.921 228.386C264.92 231.994 263.789 235.51 261.686 238.442C259.583 241.373 256.614 243.572 253.196 244.728L229.121 252.837L199.818 262.736C195.502 264.155 190.799 263.81 186.736 261.777C182.672 259.744 179.577 256.187 178.124 251.882C176.672 247.576 176.98 242.871 178.981 238.792C180.983 234.713 184.516 231.59 188.81 230.104L215.427 221.154L242.17 212.204C244.757 211.334 247.514 211.091 250.214 211.494C252.913 211.898 255.478 212.936 257.698 214.525C259.918 216.114 261.728 218.207 262.981 220.632C264.233 223.058 264.892 225.746 264.903 228.475L264.921 228.386Z" stroke="#263238" stroke-linecap="round" stroke-linejoin="round"/>
<path d="M229.119 252.838C228.571 240.955 223.702 229.681 215.426 221.137" stroke="#263238" stroke-linecap="round" stroke-linejoin="round"/>
<path d="M259.156 221.959C260.286 223.863 260.857 226.046 260.803 228.26" stroke="white" stroke-linecap="round" stroke-linejoin="round"/>
<path d="M222.229 223.749L243.709 216.589C245.635 215.928 247.684 215.703 249.708 215.929C251.733 216.155 253.682 216.827 255.415 217.896" stroke="white" stroke-linecap="round" stroke-linejoin="round"/>
<path d="M586.301 163.525C613.713 151.923 626.53 120.296 614.928 92.8836C603.326 65.4713 571.699 52.6545 544.287 64.2565C516.874 75.8584 504.058 107.486 515.66 134.898C527.262 162.31 558.889 175.127 586.301 163.525Z" fill="white" stroke="#263238" stroke-linecap="round" stroke-linejoin="round"/>
<path d="M583.881 136.45L536.876 120.716C532.967 119.402 529.74 116.59 527.904 112.898C526.068 109.206 525.773 104.936 527.085 101.026C528.398 97.1177 531.211 93.8908 534.903 92.0548C538.595 90.2188 542.865 89.9239 546.775 91.2349L593.78 106.951C597.686 108.269 600.909 111.082 602.745 114.773C604.58 118.464 604.877 122.732 603.571 126.641C602.257 130.55 599.446 133.778 595.754 135.617C592.063 137.456 587.793 137.756 583.881 136.45Z" fill="#FFC100"/>
<path d="M549.441 119.463L557.317 100.65" stroke="#263238" stroke-linecap="round" stroke-linejoin="round"/>
<path d="M575.342 128.074L583.182 109.314" stroke="#263238" stroke-linecap="round" stroke-linejoin="round"/>
<path d="M555.939 120.573C556.819 120.573 557.532 119.86 557.532 118.98C557.532 118.1 556.819 117.387 555.939 117.387C555.059 117.387 554.346 118.1 554.346 118.98C554.346 119.86 555.059 120.573 555.939 120.573Z" fill="#263238"/>
<path d="M571.6 123.671C571.6 123.986 571.507 124.294 571.332 124.556C571.157 124.818 570.908 125.022 570.617 125.143C570.326 125.264 570.005 125.295 569.696 125.234C569.387 125.172 569.103 125.021 568.881 124.798C568.658 124.575 568.506 124.291 568.445 123.982C568.383 123.673 568.415 123.353 568.535 123.062C568.656 122.77 568.86 122.522 569.122 122.347C569.384 122.172 569.692 122.078 570.007 122.078C570.43 122.078 570.835 122.246 571.134 122.545C571.432 122.844 571.6 123.249 571.6 123.671Z" fill="#263238"/>
<path d="M562.115 106.397C562.994 106.397 563.708 105.684 563.708 104.804C563.708 103.924 562.994 103.211 562.115 103.211C561.235 103.211 560.521 103.924 560.521 104.804C560.521 105.684 561.235 106.397 562.115 106.397Z" fill="#263238"/>
<path d="M577.544 109.351C577.544 109.666 577.45 109.974 577.275 110.236C577.1 110.498 576.851 110.702 576.56 110.823C576.269 110.943 575.949 110.975 575.64 110.913C575.331 110.852 575.047 110.7 574.824 110.477C574.601 110.255 574.45 109.971 574.388 109.662C574.327 109.353 574.358 109.032 574.479 108.741C574.599 108.45 574.803 108.201 575.065 108.026C575.327 107.851 575.635 107.758 575.951 107.758C576.373 107.758 576.778 107.926 577.077 108.224C577.376 108.523 577.544 108.928 577.544 109.351Z" fill="#263238"/>
<path d="M583.881 136.45L536.876 120.716C532.967 119.402 529.74 116.59 527.904 112.898C526.068 109.206 525.773 104.936 527.085 101.026C528.398 97.1177 531.211 93.8908 534.903 92.0548C538.595 90.2188 542.865 89.9239 546.775 91.2349L593.78 106.951C597.686 108.269 600.909 111.082 602.745 114.773C604.58 118.464 604.877 122.732 603.571 126.641C602.257 130.55 599.446 133.778 595.754 135.617C592.063 137.456 587.793 137.756 583.881 136.45Z" stroke="#263238" stroke-linecap="round" stroke-linejoin="round"/>
<path d="M361.83 164.858C391.597 164.858 415.727 140.728 415.727 110.961C415.727 81.1949 391.597 57.0645 361.83 57.0645C332.064 57.0645 307.934 81.1949 307.934 110.961C307.934 140.728 332.064 164.858 361.83 164.858Z" fill="white" stroke="#263238" stroke-linecap="round" stroke-linejoin="round"/>
<path d="M392.708 112.339V134.427C392.708 140.03 389.128 144.577 384.743 144.577H338.919C334.515 144.577 330.953 140.03 330.953 134.427V112.339C330.953 106.736 334.533 102.189 338.919 102.189H346.455V89.373H376.885V102.189H384.689C389.128 102.189 392.708 106.736 392.708 112.339Z" fill="white" stroke="#263238" stroke-linecap="round" stroke-linejoin="round"/>
<path d="M392.69 114.881H330.953V128.574H392.69V114.881Z" fill="#FFC100" stroke="#263238" stroke-miterlimit="10"/>
<path d="M350.662 74.3731H373.287C375.841 74.3731 378.291 75.3877 380.097 77.1937C381.903 78.9997 382.918 81.4492 382.918 84.0033V94.0094H341.014V84.0033C341.014 82.7371 341.263 81.4834 341.748 80.3138C342.234 79.1442 342.944 78.0818 343.841 77.1874C344.737 76.2929 345.801 75.5839 346.971 75.101C348.141 74.6181 349.396 74.3707 350.662 74.3731Z" fill="#FFC100" stroke="#263238" stroke-miterlimit="10"/>
<path d="M348.334 74.9824V94.0101" stroke="#263238" stroke-linecap="round" stroke-linejoin="round"/>
<path d="M358.232 74.373V94.0093" stroke="#263238" stroke-linecap="round" stroke-linejoin="round"/>
<path d="M368.131 74.373V94.0093" stroke="#263238" stroke-linecap="round" stroke-linejoin="round"/>
<path d="M378.031 75.4844V94.0109" stroke="#263238" stroke-linecap="round" stroke-linejoin="round"/>
<path d="M223.747 405.605C228.563 376.231 208.654 348.514 179.28 343.699C149.905 338.883 122.189 358.792 117.374 388.167C112.558 417.541 132.467 445.257 161.841 450.073C191.216 454.888 218.932 434.979 223.747 405.605Z" fill="white" stroke="#263238" stroke-linecap="round" stroke-linejoin="round"/>
<path d="M197.9 410.789C203.771 398.376 195.699 382.245 179.872 374.76C164.044 367.275 146.455 371.27 140.584 383.684C134.714 396.097 142.786 412.228 158.613 419.713C174.44 427.198 192.03 423.202 197.9 410.789Z" fill="#FFC100" stroke="#263238" stroke-linecap="round" stroke-linejoin="round"/>
<path d="M199.857 406.567C205.364 394.923 196.998 379.415 181.171 371.93C165.343 364.445 148.049 367.817 142.542 379.462C137.035 391.107 145.401 406.615 161.228 414.1C177.055 421.584 194.35 418.212 199.857 406.567Z" fill="#FFC100" stroke="#263238" stroke-linecap="round" stroke-linejoin="round"/>
<path d="M180.342 377.08L160.777 404.592" stroke="#263238" stroke-linecap="round" stroke-linejoin="round"/>
<path d="M168.564 372.623C171.187 372.977 173.77 373.576 176.279 374.413" stroke="white" stroke-linecap="round" stroke-linejoin="round"/>
<path d="M151.183 398.524C151.183 398.524 141.195 387.587 150.95 377.044C153.201 374.749 156.133 373.243 159.309 372.748" stroke="white" stroke-linecap="round" stroke-linejoin="round"/>
<path d="M791.472 405.636C796.288 376.262 776.379 348.546 747.004 343.73C717.63 338.915 689.914 358.823 685.098 388.198C680.283 417.572 700.192 445.288 729.566 450.104C758.94 454.919 786.657 435.011 791.472 405.636Z" fill="white" stroke="#263238" stroke-linecap="round" stroke-linejoin="round"/>
<path d="M769.217 402.319C768.806 402.91 768.394 403.519 767.964 404.109C759.891 415.297 747.451 425.732 738.232 427.791V427.648C729.282 425.643 717.236 415.708 709.163 404.861C708.715 404.27 708.286 403.662 707.874 403.071C700.105 391.937 696.83 380.249 705.475 375.416C723.053 365.606 738.232 386.639 738.232 386.639C738.232 386.639 753.447 365.767 770.989 375.559C779.402 380.249 776.52 391.454 769.217 402.319Z" fill="#FFC100" stroke="#263238" stroke-miterlimit="10"/>
<path d="M769.216 402.319C768.805 402.91 768.393 403.518 767.963 404.109H763.524L758.441 410.821L754.986 390.917L749.616 404.449H736.925L730.427 415.279L725.415 393.351L718.953 404.789H709.162C708.714 404.198 708.285 403.59 707.873 402.999H717.915L726.131 388.446L731.179 410.553L735.958 402.587H748.488L755.648 384.258L759.479 406.382L762.611 402.247L769.216 402.319Z" fill="white"/>
<path d="M686.393 291.143C716.159 291.143 740.29 267.013 740.29 237.246C740.29 207.48 716.159 183.35 686.393 183.35C656.627 183.35 632.496 207.48 632.496 237.246C632.496 267.013 656.627 291.143 686.393 291.143Z" fill="white" stroke="#263238" stroke-linecap="round" stroke-linejoin="round"/>
<path d="M682.348 212.329C682.867 213.492 679.627 216.07 675.188 218.093C670.748 220.115 666.595 220.813 666.076 219.632C665.557 218.451 668.779 215.891 673.236 213.868C677.693 211.846 681.811 211.219 682.348 212.329Z" fill="white" stroke="#263238" stroke-linecap="round" stroke-linejoin="round"/>
<path d="M706.603 262.324L690.475 270.128L676.012 240.343L666.023 219.758L682.151 211.936L691.889 232.019L706.603 262.324Z" fill="white" stroke="#263238" stroke-linecap="round" stroke-linejoin="round"/>
<path d="M669.012 225.898L676.011 222.658L669.012 225.898Z" fill="#FFC100"/>
<path d="M669.012 225.898L676.011 222.658" stroke="#263238" stroke-linecap="round" stroke-linejoin="round"/>
<path d="M672.057 232.377L679.055 229.137L672.057 232.377Z" fill="#FFC100"/>
<path d="M672.057 232.377L679.055 229.137" stroke="#263238" stroke-linecap="round" stroke-linejoin="round"/>
<path d="M696.65 267.138L704.974 278.057L700.821 265.115L696.65 267.138Z" fill="white" stroke="#263238" stroke-linecap="round" stroke-linejoin="round"/>
<path d="M706.603 262.324C702.827 266.104 698.009 268.672 692.766 269.699L690.475 270.129L676.012 240.343L691.889 232.02L706.603 262.324Z" fill="#FFC100" stroke="#263238" stroke-miterlimit="10"/>
<path d="M679.055 245.998L685.642 242.955" stroke="#263238" stroke-linecap="round" stroke-linejoin="round"/>
<path d="M682.67 252.926L689.132 249.973L682.67 252.926Z" fill="#FFC100"/>
<path d="M682.67 252.926L689.132 249.973" stroke="#263238" stroke-linecap="round" stroke-linejoin="round"/>
<path d="M671.607 217.036L666.506 205.562L670.515 203.289L676.011 214.906L671.607 217.036Z" fill="white" stroke="#263238" stroke-linecap="round" stroke-linejoin="round"/>
<path d="M680.361 201.894L679.144 199.209L657.664 208.821L658.881 211.506C659.382 212.652 664.591 211.399 670.534 208.75C676.477 206.1 680.862 203.022 680.361 201.894Z" fill="white" stroke="#263238" stroke-linecap="round" stroke-linejoin="round"/>
<path d="M679.144 199.209C678.643 198.081 673.416 199.316 667.491 201.965C661.566 204.614 657.163 207.693 657.664 208.821C658.165 209.949 663.392 208.713 669.317 206.046C675.242 203.379 679.645 200.336 679.144 199.209Z" fill="white" stroke="#263238" stroke-linecap="round" stroke-linejoin="round"/>
</svg>
