<svg width="207" height="225" viewBox="0 0 207 225" fill="none" xmlns="http://www.w3.org/2000/svg">
<path d="M4.36036 200.931L25.4045 200.931L52.5003 200.931L68.4039 161.93L91.0009 128.999L114.501 114.5L140.36 112.501L166 81.9999L194.501 68.9992" stroke="#21A21E" stroke-width="5"/>
<path d="M59.3746 70.7084H67.6246C67.7081 70.7082 67.79 70.6851 67.8614 70.6418C67.9328 70.5985 67.9911 70.5365 68.0299 70.4625C68.0687 70.3886 68.0866 70.3054 68.0816 70.222C68.0767 70.1386 68.0491 70.0582 68.0018 69.9893L63.8768 64.031C63.7059 63.7839 63.2943 63.7839 63.1229 64.031L58.9979 69.9893C58.9501 70.058 58.9221 70.1385 58.9169 70.2221C58.9117 70.3056 58.9295 70.3889 58.9683 70.4631C59.0071 70.5372 59.0655 70.5992 59.1372 70.6425C59.2088 70.6858 59.2909 70.7086 59.3746 70.7084Z" fill="#21A21E"/>
<path d="M74.122 73.79C76.8207 71.766 78.9033 69.9547 80.37 68.356C81.8513 66.7427 82.592 65.166 82.592 63.626C82.592 62.614 82.3353 61.8073 81.822 61.206C81.3233 60.59 80.502 60.282 79.358 60.282C78.2433 60.282 77.378 60.634 76.762 61.338C76.1607 62.0273 75.8233 62.9513 75.75 64.11H74.254C74.342 62.482 74.8407 61.2207 75.75 60.326C76.674 59.4167 77.8767 58.962 79.358 58.962C80.7807 58.962 81.932 59.3653 82.812 60.172C83.692 60.964 84.132 62.0933 84.132 63.56C84.132 65.3347 83.3913 67.058 81.91 68.73C80.4433 70.3873 78.632 72.008 76.476 73.592H84.616V74.89H74.122V73.79ZM86.5198 66.97C86.5198 64.4473 86.9085 62.4893 87.6858 61.096C88.4632 59.7027 89.8565 59.006 91.8658 59.006C93.8752 59.006 95.2685 59.7027 96.0458 61.096C96.8232 62.4893 97.2118 64.4473 97.2118 66.97C97.2118 69.5367 96.8232 71.524 96.0458 72.932C95.2685 74.34 93.8752 75.044 91.8658 75.044C89.8418 75.044 88.4412 74.34 87.6638 72.932C86.9012 71.524 86.5198 69.5367 86.5198 66.97ZM95.6938 66.97C95.6938 65.606 95.5985 64.4547 95.4078 63.516C95.2172 62.5773 94.8432 61.822 94.2858 61.25C93.7285 60.678 92.9218 60.392 91.8658 60.392C90.8098 60.392 90.0032 60.678 89.4458 61.25C88.8885 61.822 88.5145 62.5773 88.3238 63.516C88.1332 64.4547 88.0378 65.606 88.0378 66.97C88.0378 68.378 88.1332 69.5587 88.3238 70.512C88.5145 71.4507 88.8885 72.206 89.4458 72.778C90.0032 73.35 90.8098 73.636 91.8658 73.636C92.9218 73.636 93.7285 73.35 94.2858 72.778C94.8432 72.206 95.2172 71.4507 95.4078 70.512C95.5985 69.5587 95.6938 68.378 95.6938 66.97ZM99.5765 66.97C99.5765 64.4473 99.9652 62.4893 100.742 61.096C101.52 59.7027 102.913 59.006 104.922 59.006C106.932 59.006 108.325 59.7027 109.102 61.096C109.88 62.4893 110.268 64.4473 110.268 66.97C110.268 69.5367 109.88 71.524 109.102 72.932C108.325 74.34 106.932 75.044 104.922 75.044C102.898 75.044 101.498 74.34 100.72 72.932C99.9578 71.524 99.5765 69.5367 99.5765 66.97ZM108.75 66.97C108.75 65.606 108.655 64.4547 108.464 63.516C108.274 62.5773 107.9 61.822 107.342 61.25C106.785 60.678 105.978 60.392 104.922 60.392C103.866 60.392 103.06 60.678 102.502 61.25C101.945 61.822 101.571 62.5773 101.38 63.516C101.19 64.4547 101.094 65.606 101.094 66.97C101.094 68.378 101.19 69.5587 101.38 70.512C101.571 71.4507 101.945 72.206 102.502 72.778C103.06 73.35 103.866 73.636 104.922 73.636C105.978 73.636 106.785 73.35 107.342 72.778C107.9 72.206 108.274 71.4507 108.464 70.512C108.655 69.5587 108.75 68.378 108.75 66.97ZM112.149 62.526C112.149 61.5873 112.435 60.832 113.007 60.26C113.594 59.6733 114.334 59.38 115.229 59.38C116.138 59.38 116.879 59.6733 117.451 60.26C118.038 60.832 118.331 61.5873 118.331 62.526C118.331 63.4793 118.038 64.2493 117.451 64.836C116.879 65.408 116.138 65.694 115.229 65.694C114.334 65.694 113.594 65.408 113.007 64.836C112.435 64.2493 112.149 63.4793 112.149 62.526ZM124.469 59.6L115.449 75H113.887L122.929 59.6H124.469ZM115.229 60.37C114.672 60.37 114.224 60.5607 113.887 60.942C113.564 61.3087 113.403 61.8367 113.403 62.526C113.403 63.2153 113.564 63.7507 113.887 64.132C114.224 64.5133 114.672 64.704 115.229 64.704C115.786 64.704 116.234 64.5133 116.571 64.132C116.908 63.7507 117.077 63.2153 117.077 62.526C117.077 61.8513 116.908 61.3233 116.571 60.942C116.234 60.5607 115.786 60.37 115.229 60.37ZM120.069 72.074C120.069 71.1207 120.355 70.358 120.927 69.786C121.514 69.1993 122.254 68.906 123.149 68.906C124.044 68.906 124.777 69.1993 125.349 69.786C125.936 70.358 126.229 71.1207 126.229 72.074C126.229 73.0273 125.936 73.7973 125.349 74.384C124.777 74.956 124.044 75.242 123.149 75.242C122.254 75.242 121.514 74.956 120.927 74.384C120.355 73.7973 120.069 73.0273 120.069 72.074ZM123.149 69.918C122.592 69.918 122.144 70.1087 121.807 70.49C121.47 70.8713 121.301 71.3993 121.301 72.074C121.301 72.7487 121.47 73.2767 121.807 73.658C122.144 74.0393 122.592 74.23 123.149 74.23C123.706 74.23 124.146 74.0467 124.469 73.68C124.806 73.2987 124.975 72.7633 124.975 72.074C124.975 71.3847 124.806 70.8567 124.469 70.49C124.146 70.1087 123.706 69.918 123.149 69.918Z" fill="#21A21E"/>
<path d="M56.736 4.376V0.848H66.256V41H62.28V4.376H56.736ZM79.6996 30.304C80.1102 32.7307 81.0436 34.5973 82.4996 35.904C83.9556 37.2107 85.9529 37.864 88.4916 37.864C92.0009 37.864 94.5956 36.5013 96.2756 33.776C97.9929 31.0133 98.7769 26.4587 98.6276 20.112C97.9182 22.1653 96.5556 23.7893 94.5396 24.984C92.5609 26.1413 90.2836 26.72 87.7076 26.72C83.7876 26.72 80.6329 25.544 78.2436 23.192C75.8916 20.84 74.7156 17.5733 74.7156 13.392C74.7156 10.8907 75.2009 8.632 76.1716 6.616C77.1422 4.6 78.6169 3.01333 80.5956 1.856C82.5742 0.698665 85.0009 0.119999 87.8756 0.119999C93.1769 0.119999 96.8729 1.856 98.9636 5.328C101.054 8.76267 102.1 13.7093 102.1 20.168C102.1 27.1493 101.054 32.3947 98.9636 35.904C96.9102 39.4133 93.3636 41.168 88.3236 41.168C84.6276 41.168 81.7529 40.1787 79.6996 38.2C77.6462 36.184 76.4329 33.552 76.0596 30.304H79.6996ZM88.3236 23.36C90.0782 23.36 91.6836 23.0053 93.1396 22.296C94.6329 21.5493 95.8276 20.4667 96.7236 19.048C97.6196 17.6293 98.0676 15.9307 98.0676 13.952C98.0676 10.8907 97.1902 8.37067 95.4356 6.392C93.7182 4.41333 91.2356 3.424 87.9876 3.424C85.1129 3.424 82.7982 4.32 81.0436 6.112C79.3262 7.904 78.4676 10.2933 78.4676 13.28C78.4676 16.416 79.3262 18.88 81.0436 20.672C82.7609 22.464 85.1876 23.36 88.3236 23.36ZM116.776 20.168C114.461 19.4213 112.688 18.2453 111.456 16.64C110.261 15.0347 109.664 13.0933 109.664 10.816C109.664 8.8 110.168 7.008 111.176 5.44C112.221 3.83466 113.733 2.584 115.712 1.688C117.69 0.754664 120.061 0.287997 122.824 0.287997C125.586 0.287997 127.957 0.754664 129.936 1.688C131.914 2.584 133.408 3.83466 134.416 5.44C135.461 7.008 135.984 8.8 135.984 10.816C135.984 13.056 135.368 14.9973 134.136 16.64C132.941 18.2827 131.186 19.4587 128.872 20.168C131.41 20.8027 133.408 22.016 134.864 23.808C136.32 25.6 137.048 27.784 137.048 30.36C137.048 32.7493 136.45 34.84 135.256 36.632C134.098 38.3867 132.437 39.7493 130.272 40.72C128.144 41.6907 125.661 42.176 122.824 42.176C119.986 42.176 117.485 41.6907 115.32 40.72C113.192 39.7493 111.53 38.3867 110.336 36.632C109.178 34.84 108.6 32.7493 108.6 30.36C108.6 27.784 109.328 25.6 110.784 23.808C112.24 22.016 114.237 20.8027 116.776 20.168ZM132.176 11.264C132.176 8.8 131.336 6.896 129.656 5.552C127.976 4.208 125.698 3.536 122.824 3.536C119.949 3.536 117.672 4.208 115.992 5.552C114.312 6.85866 113.472 8.76266 113.472 11.264C113.472 13.5787 114.33 15.4267 116.048 16.808C117.765 18.1893 120.024 18.88 122.824 18.88C125.624 18.88 127.882 18.1893 129.6 16.808C131.317 15.4267 132.176 13.5787 132.176 11.264ZM122.824 21.904C119.762 21.904 117.261 22.5947 115.32 23.976C113.378 25.3573 112.408 27.448 112.408 30.248C112.408 32.936 113.341 35.0453 115.208 36.576C117.074 38.1067 119.613 38.872 122.824 38.872C125.997 38.872 128.517 38.1067 130.384 36.576C132.25 35.008 133.184 32.8987 133.184 30.248C133.184 27.4853 132.213 25.4133 130.272 24.032C128.368 22.6133 125.885 21.904 122.824 21.904Z" fill="white"/>
</svg>
