<svg width="44" height="73" viewBox="0 0 44 73" fill="none" xmlns="http://www.w3.org/2000/svg">
<path d="M0.899235 0.000155611C-0.740323 7.14701 -0.0207692 13.3097 2.11017 18.5971C7.19101 24.0538 14.0866 27.8752 21.2479 31.5698C18.8227 29.3063 16.5239 27.0674 14.5258 24.7784H26.2065C27.058 23.826 27.8517 22.8687 28.5794 21.9062H12.2156C11.4235 20.825 10.7105 19.727 10.0928 18.6018C9.76851 18.0106 9.46618 17.4084 9.18748 16.7959H31.7029C32.138 15.8603 32.508 14.9101 32.8022 13.9237H8.10613C7.55363 12.0547 7.25294 10.0618 7.27005 7.86239H33.5739C33.5454 6.94825 33.4606 5.99223 33.309 4.98524H7.46644C7.65875 3.43411 7.99286 1.77832 8.49646 0L0.899235 0.000155611ZM35.4946 0.000155611C37.1024 5.66169 37.0347 10.058 35.8914 13.9239H35.8662C35.3503 15.9741 34.5583 17.8772 33.5641 19.692C31.0469 24.2772 27.1273 28.3292 22.819 32.3767C24.8603 33.4227 26.913 34.468 28.9445 35.5466C33.2243 31.5249 37.399 27.2187 40.3195 21.8966C43.5962 15.9225 45.0956 8.68733 43.1016 0L35.4946 0.000155611ZM14.8363 39.0094C11.58 42.2695 8.5201 45.8248 6.19929 50.0277C2.78409 56.2154 1.21705 63.8539 3.0864 73H10.3927C9.5876 69.5952 9.35616 66.4149 9.58759 63.4709C9.66175 62.3231 9.80843 61.226 10.0284 60.1713H10.0537C10.2542 59.2009 10.5117 58.2418 10.8238 57.2988C10.827 57.2881 10.8303 57.2765 10.8336 57.2656C11.307 55.8422 11.906 54.4602 12.6255 53.135C15.0205 48.7193 18.368 45.2442 21.6732 42.0977C19.4135 41.0617 17.1188 40.0496 14.8363 39.0094ZM22.4588 42.4629C24.7714 44.6991 26.9228 46.95 28.7334 49.312H18.8358C18.0673 50.2313 17.3396 51.1863 16.669 52.184H30.7209C30.9524 52.5606 31.174 52.9433 31.3867 53.3272C32.0891 54.6008 32.6905 55.917 33.1721 57.2992H13.9774C13.627 58.2182 13.3353 59.1771 13.1006 60.1716H33.9691C34.3578 62.0426 34.533 64.0466 34.4385 66.2331H12.4853C12.5073 67.1624 12.5782 68.1204 12.7054 69.1049H34.1736C34.0025 70.3442 33.7499 71.6402 33.4133 73H40.9103C42.4358 65.5276 41.669 59.0629 39.4737 53.5723C34.9184 48.6775 28.8597 45.4308 22.4588 42.4629Z" fill="#6F6F6F"/>
</svg>
