<svg width="202" height="220" viewBox="0 0 202 220" fill="none" xmlns="http://www.w3.org/2000/svg">
<path d="M0 182.932L21.0442 182.932L49.0432 173.932L64.0436 143.931L89 124L125 113L141 101L167.5 93L201 90" stroke="#21A21E" stroke-width="5"/>
<path d="M44.2504 26.2495H57.7504C57.8871 26.249 58.0211 26.2113 58.1379 26.1404C58.2548 26.0695 58.3501 25.9681 58.4136 25.8471C58.4771 25.726 58.5063 25.5899 58.4983 25.4535C58.4902 25.3171 58.445 25.1854 58.3677 25.0727L51.6177 15.3227C51.3379 14.9185 50.6644 14.9185 50.3839 15.3227L43.6339 25.0727C43.5558 25.1852 43.51 25.3169 43.5015 25.4536C43.4929 25.5902 43.522 25.7266 43.5856 25.8479C43.6491 25.9692 43.7447 26.0708 43.8619 26.1416C43.9791 26.2124 44.1135 26.2497 44.2504 26.2495Z" fill="#21A21E"/>
<path d="M64.736 4.376V0.848H74.256V41H70.28V4.376H64.736ZM107.804 4.208H87.3076V18.544C88.2409 17.2373 89.6036 16.1733 91.3956 15.352C93.1876 14.4933 95.1289 14.064 97.2196 14.064C100.281 14.064 102.782 14.6987 104.724 15.968C106.665 17.2 108.065 18.824 108.924 20.84C109.782 22.8187 110.212 24.9467 110.212 27.224C110.212 29.8373 109.708 32.208 108.7 34.336C107.729 36.4267 106.217 38.088 104.164 39.32C102.148 40.552 99.6276 41.168 96.6036 41.168C92.7582 41.168 89.6409 40.1787 87.2516 38.2C84.8622 36.184 83.4062 33.4773 82.8836 30.08H86.7476C87.2329 32.544 88.3529 34.448 90.1076 35.792C91.8622 37.136 94.0276 37.808 96.6036 37.808C99.8516 37.808 102.297 36.856 103.94 34.952C105.62 33.0107 106.46 30.4533 106.46 27.28C106.46 24.1813 105.62 21.7733 103.94 20.056C102.26 18.3013 99.8516 17.424 96.7156 17.424C94.5502 17.424 92.6462 17.928 91.0036 18.936C89.3609 19.944 88.1476 21.3067 87.3636 23.024H83.6676V0.791997H107.804V4.208ZM115.322 9.248C115.322 6.85866 116.05 4.936 117.506 3.48C118.999 1.98666 120.885 1.24 123.162 1.24C125.477 1.24 127.362 1.98666 128.818 3.48C130.311 4.936 131.058 6.85866 131.058 9.248C131.058 11.6747 130.311 13.6347 128.818 15.128C127.362 16.584 125.477 17.312 123.162 17.312C120.885 17.312 118.999 16.584 117.506 15.128C116.05 13.6347 115.322 11.6747 115.322 9.248ZM146.682 1.8L123.722 41H119.746L142.762 1.8H146.682ZM123.162 3.76C121.743 3.76 120.605 4.24533 119.746 5.216C118.925 6.14933 118.514 7.49333 118.514 9.248C118.514 11.0027 118.925 12.3653 119.746 13.336C120.605 14.3067 121.743 14.792 123.162 14.792C124.581 14.792 125.719 14.3067 126.578 13.336C127.437 12.3653 127.866 11.0027 127.866 9.248C127.866 7.53066 127.437 6.18666 126.578 5.216C125.719 4.24533 124.581 3.76 123.162 3.76ZM135.482 33.552C135.482 31.1253 136.21 29.184 137.666 27.728C139.159 26.2347 141.045 25.488 143.322 25.488C145.599 25.488 147.466 26.2347 148.922 27.728C150.415 29.184 151.162 31.1253 151.162 33.552C151.162 35.9787 150.415 37.9387 148.922 39.432C147.466 40.888 145.599 41.616 143.322 41.616C141.045 41.616 139.159 40.888 137.666 39.432C136.21 37.9387 135.482 35.9787 135.482 33.552ZM143.322 28.064C141.903 28.064 140.765 28.5493 139.906 29.52C139.047 30.4907 138.618 31.8347 138.618 33.552C138.618 35.2693 139.047 36.6133 139.906 37.584C140.765 38.5547 141.903 39.04 143.322 39.04C144.741 39.04 145.861 38.5733 146.682 37.64C147.541 36.6693 147.97 35.3067 147.97 33.552C147.97 31.7973 147.541 30.4533 146.682 29.52C145.861 28.5493 144.741 28.064 143.322 28.064Z" fill="#21A21E"/>
</svg>
