<svg width="31" height="47" viewBox="0 0 31 47" fill="none" xmlns="http://www.w3.org/2000/svg">
<path d="M0.624148 9.84862e-05C-0.513849 4.52334 -0.0144157 8.42371 1.46464 11.7701C4.99119 15.2237 9.77734 17.6422 14.7479 19.9805C13.0646 18.5479 11.4691 17.131 10.0822 15.6822L18.1896 15.6822C18.7806 15.0794 19.3315 14.4736 19.8366 13.8644L8.47871 13.8644C7.92894 13.1801 7.43404 12.4852 7.00531 11.7731C6.7802 11.3989 6.57036 11.0178 6.37692 10.6301L22.0046 10.6301C22.3066 10.038 22.5634 9.43659 22.7676 8.8123L5.62636 8.8123C5.24288 7.62941 5.03418 6.36809 5.04605 4.9761L23.3032 4.9761C23.2834 4.39754 23.2246 3.79248 23.1194 3.15515L5.18236 3.15515C5.31585 2.17345 5.54775 1.1255 5.89729 0L0.624148 9.84862e-05ZM24.6363 9.84862e-05C25.7523 3.58328 25.7053 6.36568 24.9118 8.8124H24.8943C24.5362 10.11 23.9865 11.3145 23.2964 12.4631C21.5493 15.365 18.8287 17.9295 15.8384 20.4912C17.2552 21.1532 18.68 21.8148 20.09 22.4974C23.0606 19.9521 25.9582 17.2267 27.9853 13.8583C30.2596 10.0773 31.3003 5.49821 29.9163 0L24.6363 9.84862e-05ZM10.2977 24.689C8.03754 26.7524 5.91369 29.0025 4.30285 31.6625C1.9324 35.5787 0.844737 40.4131 2.14224 46.2017H7.21345C6.65463 44.0467 6.494 42.034 6.65463 40.1707C6.7061 39.4443 6.80791 38.7499 6.96062 38.0824H6.97816C7.1173 37.4682 7.29603 36.8612 7.51265 36.2644C7.51491 36.2576 7.51718 36.2502 7.51944 36.2434C7.84806 35.3425 8.26378 34.4678 8.76321 33.6291C10.4255 30.8344 12.749 28.635 15.0431 26.6436C13.4747 25.9879 11.882 25.3473 10.2977 24.689ZM15.5884 26.8747C17.1935 28.2901 18.6868 29.7146 19.9435 31.2096H13.0737C12.5403 31.7914 12.0352 32.3958 11.5697 33.0272H21.323C21.4837 33.2656 21.6375 33.5078 21.7851 33.7507C22.2727 34.5568 22.6901 35.3898 23.0244 36.2646H9.70155C9.45834 36.8462 9.25585 37.4531 9.09296 38.0826H23.5775C23.8473 39.2667 23.9689 40.5351 23.9033 41.9189H8.66592C8.68119 42.507 8.7304 43.1134 8.81864 43.7364H23.7195C23.6007 44.5208 23.4254 45.3411 23.1918 46.2017H28.3954C29.4542 41.4724 28.9219 37.3809 27.3982 33.9058C24.2365 30.8079 20.0312 28.7531 15.5884 26.8747Z" fill="#FFBF1B"/>
</svg>
