<svg width="238" height="88" viewBox="0 0 238 88" fill="none" xmlns="http://www.w3.org/2000/svg">
<path d="M19.7093 81.5887C17.4352 81.5887 15.3793 81.218 13.5415 80.4758C11.7348 79.7335 10.3019 78.6653 9.2428 77.2702C8.18368 75.8752 7.63858 74.2278 7.60742 72.3278H14.6162C14.7097 73.6045 15.1769 74.6137 16.0179 75.3552C16.8902 76.0974 18.0738 76.4689 19.5691 76.4689C21.0955 76.4689 22.2946 76.127 23.1669 75.4446C24.0392 74.732 24.4752 73.8123 24.4752 72.6841C24.4752 71.764 24.1793 71.007 23.5874 70.4135C22.9955 69.8199 22.2479 69.3597 21.3446 69.0332C20.4723 68.677 19.2575 68.2911 17.7 67.8757C15.5819 67.2821 13.853 66.7032 12.5136 66.1393C11.2053 65.5457 10.0683 64.67 9.10262 63.5124C8.1681 62.3251 7.70087 60.752 7.70087 58.793C7.70087 56.9528 8.18368 55.35 9.14937 53.9845C10.115 52.6191 11.4701 51.5803 13.2144 50.8679C14.9589 50.1258 16.9524 49.7548 19.1953 49.7548C22.5595 49.7548 25.2851 50.5415 27.3721 52.1146C29.4903 53.658 30.6584 55.8247 30.8765 58.6149H23.6809C23.6186 57.5463 23.1357 56.6707 22.2324 55.988C21.3601 55.2757 20.192 54.9195 18.728 54.9195C17.4509 54.9195 16.423 55.2311 15.6441 55.8545C14.8965 56.4778 14.5227 57.383 14.5227 58.5704C14.5227 59.4015 14.8031 60.0989 15.3638 60.663C15.9557 61.1973 16.6721 61.6425 17.5132 61.9986C18.3854 62.3251 19.6002 62.711 21.1577 63.1562C23.2758 63.7498 25.0047 64.3436 26.3442 64.9371C27.6837 65.5308 28.8361 66.4212 29.8018 67.6085C30.7675 68.7958 31.2503 70.3542 31.2503 72.2831C31.2503 73.9457 30.7986 75.4893 29.8953 76.9139C28.992 78.3385 27.668 79.4811 25.9236 80.3423C24.1793 81.1733 22.1077 81.5887 19.7093 81.5887ZM60.985 68.4099C60.985 69.3004 60.9226 70.1018 60.7982 70.8141H41.8745C42.0302 72.5954 42.6844 73.9904 43.8369 74.9996C44.9894 76.0087 46.4068 76.5129 48.0889 76.5129C50.5187 76.5129 52.2475 75.5189 53.2754 73.5302H60.3309C59.5833 75.9048 58.1504 77.8639 56.0322 79.4068C53.9139 80.9208 51.3129 81.6775 48.2291 81.6775C45.737 81.6775 43.4942 81.1581 41.5007 80.1194C39.5382 79.0512 37.9963 77.5523 36.8749 75.6228C35.7846 73.6933 35.2395 71.4672 35.2395 68.9442C35.2395 66.3916 35.7846 64.1505 36.8749 62.2212C37.9651 60.2919 39.4915 58.8078 41.454 57.7689C43.4164 56.7302 45.6748 56.2107 48.2291 56.2107C50.6899 56.2107 52.886 56.7152 54.8173 57.7244C56.7798 58.7337 58.2905 60.1732 59.3497 62.0431C60.4399 63.8834 60.985 66.0057 60.985 68.4099ZM54.2099 66.629C54.1787 65.0262 53.5713 63.7498 52.3876 62.8C51.2038 61.8205 49.7553 61.3308 48.0422 61.3308C46.4224 61.3308 45.0518 61.8058 43.9304 62.7555C42.84 63.6757 42.1704 64.9669 41.9212 66.629H54.2099ZM64.0777 68.8551C64.0777 66.3619 64.5916 64.1505 65.6196 62.2212C66.6786 60.2919 68.096 58.8078 69.8716 57.7689C71.6782 56.7302 73.6874 56.2107 75.8991 56.2107C77.83 56.2107 79.5125 56.5817 80.9454 57.3237C82.4092 58.0658 83.5773 59.0008 84.4495 60.1287V56.6114H91.038V81.2771H84.4495V77.6706C83.6091 78.8283 82.441 79.7927 80.9454 80.5645C79.4815 81.3067 77.7839 81.6775 75.8524 81.6775C73.6719 81.6775 71.6782 81.1437 69.8716 80.0747C68.096 79.0064 66.6786 77.5076 65.6196 75.578C64.5916 73.619 64.0777 71.3782 64.0777 68.8551ZM84.4495 68.9442C84.4495 67.4304 84.1386 66.1393 83.5152 65.0707C82.8919 63.9724 82.0514 63.1414 80.9923 62.5774C79.9332 61.9839 78.7961 61.687 77.5811 61.687C76.3662 61.687 75.245 61.9689 74.2171 62.5329C73.1891 63.0969 72.348 63.9279 71.6939 65.0262C71.0708 66.0947 70.7594 67.3711 70.7594 68.8551C70.7594 70.3392 71.0708 71.6453 71.6939 72.7729C72.348 73.8714 73.1891 74.7175 74.2171 75.3112C75.276 75.9048 76.3972 76.2013 77.5811 76.2013C78.7961 76.2013 79.9332 75.9192 80.9923 75.3552C82.0514 74.7622 82.8919 73.9306 83.5152 72.8623C84.1386 71.764 84.4495 70.458 84.4495 68.9442ZM103.968 60.4403C104.81 59.1344 105.9 58.1103 107.24 57.3683C108.61 56.6262 110.167 56.2552 111.912 56.2552V62.8H110.183C108.127 62.8 106.569 63.2601 105.51 64.1802C104.482 65.1004 103.968 66.7032 103.968 68.9887V81.2771H97.4268V56.6114H103.968V60.4403ZM114.636 68.9442C114.636 66.3916 115.181 64.1655 116.271 62.2657C117.361 60.3365 118.872 58.8523 120.803 57.8135C122.734 56.745 124.947 56.2107 127.438 56.2107C130.647 56.2107 133.295 56.9823 135.382 58.5259C137.5 60.0396 138.917 62.1767 139.633 64.9371H132.578C132.204 63.8686 131.566 63.0375 130.663 62.4439C129.79 61.8205 128.7 61.5089 127.392 61.5089C125.523 61.5089 124.043 62.1619 122.953 63.4679C121.862 64.7442 121.317 66.5697 121.317 68.9442C121.317 71.2891 121.862 73.1148 122.953 74.4203C124.043 75.6971 125.523 76.3347 127.392 76.3347C130.039 76.3347 131.768 75.2073 132.578 72.951H139.633C138.917 75.6228 137.5 77.7449 135.382 79.318C133.264 80.8912 130.616 81.6775 127.438 81.6775C124.947 81.6775 122.734 81.1581 120.803 80.1194C118.872 79.0512 117.361 77.5667 116.271 75.6675C115.181 73.738 114.636 71.4968 114.636 68.9442ZM159.003 56.2552C160.966 56.2552 162.712 56.6707 164.238 57.5018C165.764 58.3032 166.947 59.5054 167.789 61.1082C168.66 62.6813 169.097 64.5809 169.097 66.8071V81.2771H162.555V67.6531C162.555 65.6941 162.041 64.195 161.013 63.1562C159.985 62.0876 158.583 61.5534 156.808 61.5534C155.001 61.5534 153.568 62.0876 152.509 63.1562C151.481 64.195 150.968 65.6941 150.968 67.6531V81.2771H144.426V48.3301H150.968V59.6834C151.809 58.6149 152.93 57.7837 154.332 57.1902C155.734 56.5669 157.291 56.2552 159.003 56.2552Z" fill="#F0EEEE"/>
<path d="M177.472 13.508C175.949 20.1426 176.617 25.8636 178.596 30.772C183.313 35.8377 189.714 39.3852 196.362 42.8149C194.111 40.7137 191.977 38.6353 190.122 36.5103H200.966C201.756 35.6261 202.493 34.7375 203.169 33.844H187.977C187.242 32.8403 186.58 31.8209 186.007 30.7764C185.705 30.2276 185.425 29.6685 185.166 29.0999H206.069C206.473 28.2314 206.816 27.3493 207.089 26.4336H184.162C183.649 24.6985 183.37 22.8484 183.386 20.8067H207.805C207.779 19.9581 207.7 19.0706 207.56 18.1357H183.568C183.747 16.6958 184.057 15.1587 184.525 13.5078L177.472 13.508ZM209.589 13.508C211.081 18.7637 211.018 22.8449 209.957 26.4337H209.934C209.455 28.337 208.719 30.1038 207.796 31.7884C205.46 36.045 201.821 39.8066 197.821 43.564C199.716 44.535 201.622 45.5054 203.508 46.5067C207.481 42.7732 211.357 38.7757 214.068 33.835C217.11 28.2891 218.502 21.5725 216.651 13.5078L209.589 13.508ZM190.41 49.7213C187.387 52.7478 184.546 56.0482 182.392 59.95C179.221 65.6941 177.767 72.7852 179.502 81.2758H186.285C185.537 78.115 185.323 75.1626 185.537 72.4296C185.606 71.3641 185.743 70.3456 185.947 69.3665H185.97C186.156 68.4656 186.395 67.5753 186.685 66.6999C186.688 66.69 186.691 66.6792 186.694 66.6691C187.134 65.3477 187.69 64.0648 188.358 62.8346C190.581 58.7353 193.689 55.5093 196.757 52.5883C194.66 51.6265 192.529 50.687 190.41 49.7213ZM197.487 52.9273C199.634 55.0033 201.631 57.0928 203.312 59.2856H194.123C193.41 60.1389 192.734 61.0255 192.112 61.9517H205.157C205.372 62.3013 205.578 62.6566 205.775 63.0129C206.427 64.1953 206.985 65.4171 207.433 66.7003H189.613C189.288 67.5534 189.017 68.4436 188.799 69.3668H208.172C208.533 71.1037 208.696 72.9641 208.608 74.9939H188.228C188.248 75.8565 188.314 76.7459 188.432 77.6598H208.362C208.203 78.8103 207.969 80.0135 207.656 81.2758H214.616C216.033 74.3389 215.321 68.3376 213.283 63.2404C209.054 58.6965 203.429 55.6825 197.487 52.9273Z" fill="#F0EEEE"/>
<path d="M8.92383 32.8386C8.92383 29.731 9.59803 26.967 10.9465 24.5466C12.3263 22.0963 14.2706 20.1989 16.7793 18.8543C19.288 17.4797 22.173 16.7925 25.4344 16.7925C29.5738 16.7925 33.0547 17.8532 35.877 19.9748C38.6993 22.0665 40.5181 24.9201 41.3335 28.5358H31.4083C30.8125 27.3405 29.9815 26.4291 28.9153 25.8016C27.8804 25.1741 26.6731 24.8603 25.2933 24.8603C23.1609 24.8603 21.4518 25.5925 20.1661 27.0567C18.9117 28.4909 18.2846 30.4183 18.2846 32.8386C18.2846 35.2889 18.9117 37.2461 20.1661 38.7103C21.4518 40.1446 23.1609 40.8618 25.2933 40.8618C26.6731 40.8618 27.8804 40.548 28.9153 39.9205C29.9815 39.293 30.8125 38.3816 31.4083 37.1863H41.3335C40.5181 40.802 38.6993 43.6705 35.877 45.7921C33.0547 47.8838 29.5738 48.9296 25.4344 48.9296C22.173 48.9296 19.288 48.2573 16.7793 46.9126C14.2706 45.5381 12.3263 43.6407 10.9465 41.2203C9.59803 38.77 8.92383 35.9762 8.92383 32.8386ZM97.2829 41.2203V48.7055H93.2847C86.5426 48.7055 83.1716 45.5232 83.1716 39.1585V30.8665H79.9262V23.5605H83.1716V17.4648H92.4382V23.5605H97.236V30.8665H92.4382V39.293C92.4382 39.9802 92.5947 40.4733 92.9087 40.7721C93.2537 41.0709 93.818 41.2203 94.6018 41.2203H97.2829ZM122.679 32.48C124.623 32.8984 126.16 33.8247 127.289 35.259C128.449 36.6634 129.029 38.277 129.029 40.0998C129.029 42.789 128.057 44.8957 126.113 46.4196C124.169 47.9436 121.441 48.7055 117.928 48.7055H101.512V17.1062H117.411C120.798 17.1062 123.448 17.8234 125.36 19.2576C127.304 20.6919 128.277 22.7089 128.277 25.3086C128.277 27.1612 127.76 28.715 126.725 29.97C125.721 31.1952 124.373 32.0318 122.679 32.48ZM110.731 29.6563H115.389C117.709 29.6563 118.869 28.7449 118.869 26.9222C118.869 25.0396 117.709 24.0984 115.389 24.0984H110.731V29.6563ZM116.094 41.6237C118.415 41.6237 119.575 40.6974 119.575 38.8448C119.575 37.8886 119.261 37.1565 118.634 36.6485C118.038 36.1405 117.175 35.8865 116.047 35.8865H110.731V41.6237H116.094ZM137.727 21.2298C136.096 21.2298 134.779 20.8115 133.776 19.9748C132.803 19.1082 132.317 18.0325 132.317 16.7476C132.317 15.4329 132.803 14.3422 133.776 13.4757C134.779 12.6091 136.096 12.1758 137.727 12.1758C139.326 12.1758 140.612 12.6091 141.584 13.4757C142.587 14.3422 143.089 15.4329 143.089 16.7476C143.089 18.0325 142.587 19.1082 141.584 19.9748C140.612 20.8115 139.326 21.2298 137.727 21.2298ZM142.289 23.5605V48.7055H133.07V23.5605H142.289ZM159.818 49.0193C157.184 49.0193 154.815 48.4963 152.714 47.4505C150.644 46.4047 149.014 44.9106 147.822 42.9683C146.63 41.0261 146.035 38.7402 146.035 36.1106C146.035 33.511 146.63 31.24 147.822 29.2977C149.045 27.3554 150.691 25.8614 152.761 24.8155C154.862 23.7697 157.231 23.2468 159.865 23.2468C162.499 23.2468 164.851 23.7697 166.921 24.8155C169.022 25.8614 170.668 27.3554 171.859 29.2977C173.083 31.24 173.694 33.511 173.694 36.1106C173.694 38.7103 173.083 40.9962 171.859 42.9683C170.668 44.9106 169.022 46.4047 166.921 47.4505C164.819 48.4963 162.452 49.0193 159.818 49.0193ZM159.818 41.3996C161.103 41.3996 162.17 40.9513 163.016 40.0549C163.895 39.1286 164.333 37.8139 164.333 36.1106C164.333 34.4074 163.895 33.1076 163.016 32.2111C162.17 31.3147 161.119 30.8665 159.865 30.8665C158.61 30.8665 157.56 31.3147 156.712 32.2111C155.866 33.1076 155.442 34.4074 155.442 36.1106C155.442 37.8437 155.85 39.1585 156.665 40.0549C157.482 40.9513 158.532 41.3996 159.818 41.3996Z" fill="#F0EEEE"/>
<path fill-rule="evenodd" clip-rule="evenodd" d="M60.8482 25.3364C58.1118 25.3364 57.8382 25.6129 56.422 25.6129C55.2425 25.6129 51.6999 22.8594 49.9305 22.8594C48.1594 22.8594 46.094 23.8513 46.094 26.7141V30.0175C46.0978 30.8841 46.4269 33.5408 47.7211 32.8309C46.1921 34.5539 46.0387 36.5639 46.0589 38.5089C45.6467 38.6217 45.227 38.7503 44.8184 38.8824C43.5538 39.2946 42.2115 39.8196 41.6069 40.1931C41.298 40.3834 41.081 40.6826 41.0037 41.0253C40.9263 41.3679 40.995 41.7258 41.1945 42.0201C41.3941 42.3144 41.7083 42.5212 42.0678 42.5948C42.4274 42.6687 42.8029 42.6032 43.1118 42.413C43.4003 42.2351 44.4449 41.7964 45.7151 41.3824L46.1367 41.2502C46.2217 42.0131 46.4343 42.7124 46.7504 43.3466L46.706 43.3696C45.9481 43.7502 45.2455 44.1888 44.7979 44.4672L44.5892 44.5975C44.2803 44.7877 44.0632 45.0871 43.9859 45.4296C43.9086 45.7723 43.9773 46.1301 44.1768 46.4244C44.3763 46.7189 44.6906 46.9255 45.0501 46.9993C45.4097 47.073 45.7851 47.0075 46.094 46.8174L46.3363 46.6658C46.7892 46.3839 47.3699 46.0228 48.0021 45.7056C48.1501 45.6299 48.2924 45.5629 48.4292 45.5012C51.6278 48.3605 57.3723 49.2856 60.8482 49.2856C64.324 49.2856 70.0685 48.3605 73.267 45.5012C73.4039 45.5629 73.5444 45.6299 73.6941 45.7056C74.3265 46.0228 74.9071 46.3839 75.3601 46.6658L75.6022 46.8174C75.9113 47.0075 76.287 47.073 76.6464 46.9993C77.0057 46.9255 77.3196 46.7189 77.5194 46.4244C77.7191 46.1301 77.7879 45.7723 77.7108 45.4296C77.6328 45.0871 77.4165 44.7877 77.1071 44.5975L76.8983 44.4672C76.2802 44.0734 75.6437 43.7072 74.9902 43.3696L74.9459 43.3466C75.2621 42.7124 75.4747 42.0131 75.5597 41.2502L75.9813 41.3824C77.2516 41.7964 78.2963 42.2351 78.5861 42.413C78.8947 42.5924 79.2654 42.65 79.6179 42.573C79.9705 42.4961 80.2776 42.2909 80.4736 42.0014C80.6695 41.7117 80.7391 41.3606 80.668 41.0228C80.5961 40.685 80.3881 40.3872 80.0893 40.1931C79.4848 39.8196 78.1427 39.2946 76.8801 38.8824C76.4686 38.7489 76.054 38.6238 75.6373 38.5072C75.6596 36.5623 75.5042 34.5539 73.9734 32.8309C75.2676 33.5408 75.6005 30.8841 75.6022 30.0156V26.7141C75.6022 23.8513 73.537 22.8594 71.7659 22.8594C69.9964 22.8594 66.454 25.6129 65.2762 25.6129C63.8582 25.6129 63.5846 25.3364 60.8482 25.3364ZM59.6001 41.5339C59.9736 41.4123 60.4156 41.3578 60.8482 41.3578C61.2808 41.3578 61.7227 41.4123 62.098 41.5339C62.2829 41.5939 62.5048 41.6889 62.7045 41.8403C62.8414 41.9388 62.9533 42.0652 63.0321 42.2104C63.1107 42.3555 63.1542 42.5157 63.1592 42.679C63.1592 43.0842 62.9022 43.366 62.7045 43.5176C62.5067 43.6691 62.281 43.7643 62.098 43.8241C61.6939 43.9459 61.272 44.0054 60.8482 44.0003C60.425 44.0056 60.0036 43.9461 59.6001 43.8241C59.3803 43.7563 59.1744 43.6526 58.9919 43.5176C58.855 43.4193 58.7431 43.2927 58.6643 43.1476C58.5856 43.0024 58.5421 42.8422 58.537 42.679C58.537 42.2738 58.794 41.992 58.9919 41.8403C59.1898 41.6889 59.4171 41.5939 59.6001 41.5339ZM64.8603 36.0725C65.1135 35.6708 65.6109 35.1916 66.3578 35.1916C67.1048 35.1916 67.604 35.6708 67.8554 36.0725C68.118 36.4935 68.2438 37.001 68.2438 37.5047C68.2438 38.0069 68.118 38.5143 67.8554 38.9335C67.604 39.3369 67.1048 39.8162 66.3578 39.8162C65.6109 39.8162 65.1135 39.3369 64.8603 38.9353C64.5989 38.4995 64.4648 38.005 64.4721 37.5029C64.4721 37.001 64.5977 36.4935 64.8603 36.0742V36.0725ZM53.8409 36.0725C54.0942 35.6708 54.5915 35.1916 55.3385 35.1916C56.0855 35.1916 56.5846 35.6708 56.8361 36.0725C57.0986 36.4935 57.2244 37.001 57.2244 37.5047C57.2244 38.0069 57.0986 38.5143 56.8361 38.9335C56.5846 39.3369 56.0855 39.8162 55.3385 39.8162C54.5915 39.8162 54.0942 39.3369 53.8409 38.9353C53.5796 38.4995 53.4456 38.005 53.4526 37.5029C53.4526 37.001 53.5784 36.4935 53.8409 36.0742V36.0725Z" fill="#F0EEEE"/>
</svg>
