<svg width="40" height="38" viewBox="0 0 40 38" fill="none" xmlns="http://www.w3.org/2000/svg">
<path d="M19.9993 14.25C18.6733 14.25 17.4015 14.7504 16.4638 15.6412C15.5261 16.532 14.9993 17.7402 14.9993 19C14.9993 20.2598 15.5261 21.468 16.4638 22.3588C17.4015 23.2496 18.6733 23.75 19.9993 23.75C21.3254 23.75 22.5972 23.2496 23.5349 22.3588C24.4726 21.468 24.9993 20.2598 24.9993 19C24.9993 17.7402 24.4726 16.532 23.5349 15.6412C22.5972 14.7504 21.3254 14.25 19.9993 14.25ZM19.9993 26.9167C17.7892 26.9167 15.6696 26.0826 14.1068 24.5979C12.544 23.1133 11.666 21.0996 11.666 19C11.666 16.9004 12.544 14.8867 14.1068 13.4021C15.6696 11.9174 17.7892 11.0833 19.9993 11.0833C22.2095 11.0833 24.3291 11.9174 25.8919 13.4021C27.4547 14.8867 28.3327 16.9004 28.3327 19C28.3327 21.0996 27.4547 23.1133 25.8919 24.5979C24.3291 26.0826 22.2095 26.9167 19.9993 26.9167ZM19.9993 7.125C11.666 7.125 4.54935 12.0492 1.66602 19C4.54935 25.9508 11.666 30.875 19.9993 30.875C28.3327 30.875 35.4493 25.9508 38.3327 19C35.4493 12.0492 28.3327 7.125 19.9993 7.125Z" fill="#6F6F6F"/>
</svg>
