<svg width="39" height="37" viewBox="0 0 39 37" fill="none" xmlns="http://www.w3.org/2000/svg">
<path d="M19.5 6.16602C21.2239 6.16602 22.8772 6.81572 24.0962 7.97219C25.3152 9.12866 26 10.6972 26 12.3327C26 13.9682 25.3152 15.5367 24.0962 16.6932C22.8772 17.8496 21.2239 18.4993 19.5 18.4993C17.7761 18.4993 16.1228 17.8496 14.9038 16.6932C13.6848 15.5367 13 13.9682 13 12.3327C13 10.6972 13.6848 9.12866 14.9038 7.97219C16.1228 6.81572 17.7761 6.16602 19.5 6.16602ZM19.5 21.5827C26.6825 21.5827 32.5 24.3423 32.5 27.7493V30.8327H6.5V27.7493C6.5 24.3423 12.3175 21.5827 19.5 21.5827Z" fill="#6F6F6F"/>
</svg>
