<svg width="40" height="38" viewBox="0 0 40 38" fill="none" xmlns="http://www.w3.org/2000/svg">
<path d="M19.716 14.25L24.9993 19.2533V19C24.9993 17.7402 24.4726 16.532 23.5349 15.6412C22.5972 14.7504 21.3254 14.25 19.9993 14.25H19.716ZM12.5493 15.5167L15.1327 17.9708C15.0493 18.3033 14.9993 18.6358 14.9993 19C14.9993 20.2598 15.5261 21.468 16.4638 22.3588C17.4015 23.2496 18.6733 23.75 19.9993 23.75C20.366 23.75 20.7327 23.7025 21.0827 23.6233L23.666 26.0775C22.5493 26.6 21.316 26.9167 19.9993 26.9167C17.7892 26.9167 15.6696 26.0826 14.1068 24.5979C12.544 23.1133 11.666 21.0996 11.666 19C11.666 17.7492 11.9993 16.5775 12.5493 15.5167ZM3.33268 6.76083L7.13268 10.3708L7.88268 11.0833C5.13268 13.1417 2.96602 15.8333 1.66602 19C4.54935 25.9508 11.666 30.875 19.9993 30.875C22.5827 30.875 25.0493 30.4 27.2993 29.545L28.016 30.21L32.8827 34.8333L34.9993 32.8225L5.44935 4.75M19.9993 11.0833C22.2095 11.0833 24.3291 11.9174 25.8919 13.4021C27.4547 14.8867 28.3327 16.9004 28.3327 19C28.3327 20.0133 28.116 20.995 27.7327 21.8817L32.616 26.5208C35.116 24.5417 37.116 21.945 38.3327 19C35.4493 12.0492 28.3327 7.125 19.9993 7.125C17.666 7.125 15.4327 7.52083 13.3327 8.23333L16.9493 11.6375C17.8993 11.2892 18.916 11.0833 19.9993 11.0833Z" fill="#6F6F6F"/>
</svg>
